<svg width="150" height="40" viewBox="0 0 150 40" fill="none" xmlns="http://www.w3.org/2000/svg">
<path d="M58.697 34.2242H58.4521C58.2554 34.2242 58.0817 34.0686 58.0336 33.8473L54.9072 19.769V16.0676C54.9072 15.7904 54.7125 15.5642 54.474 15.5642H51.2596C51.0211 15.5642 50.8265 15.7904 50.8265 16.0676V19.769L47.6582 33.8497C47.6079 34.071 47.4363 34.2242 47.2396 34.2242H46.9948C46.7981 34.2242 46.6244 34.0686 46.5763 33.8473L41.9766 13.0739C41.9264 12.8526 41.7548 12.697 41.558 12.697H38.304C38.0214 12.697 37.8164 13.0058 37.8854 13.322L43.2678 38.0496C43.3159 38.2734 43.4896 38.429 43.6863 38.429H50.4226C50.6235 38.429 50.7993 38.2685 50.8432 38.0399L52.8626 27.9232L54.8465 38.0375C54.8904 38.2661 55.0662 38.429 55.2692 38.429H62.0473C62.2461 38.429 62.4177 38.2734 62.4659 38.0496L67.8482 13.322C67.9173 13.0034 67.7101 12.697 67.4297 12.697H64.1756C63.9789 12.697 63.8073 12.8526 63.757 13.0739L59.1155 33.8497C59.0653 34.071 58.8937 34.2267 58.697 34.2267V34.2242Z" fill="#74A8D9"/>
<path d="M87.3749 15.7077C85.4622 13.3171 82.9573 12.0161 80.2159 12.0161C77.4745 12.0161 74.459 13.4022 72.3537 15.9193C70.2297 18.4606 69.0599 21.8677 69.0599 25.5131C69.0599 29.1586 70.2297 32.6483 72.3516 35.2164C74.4548 37.7578 77.2485 39.1586 80.2159 39.1586C83.1833 39.1586 85.458 37.8307 87.3749 35.3891V37.928C87.3749 38.2053 87.5695 38.4314 87.8081 38.4314H91.0224C91.261 38.4314 91.4556 38.2053 91.4556 37.928V13.2004C91.4556 12.9232 91.261 12.697 91.0224 12.697H87.8081C87.5695 12.697 87.3749 12.9232 87.3749 13.2004V15.7077ZM80.2159 16.5637C83.1247 16.5637 85.9247 18.519 87.3749 21.5564V29.4747C85.8012 32.697 83.133 34.6158 80.2159 34.6158C77.2987 34.6158 73.2222 30.7053 73.2222 25.518C73.2222 20.3307 76.2293 16.5661 80.2159 16.5661V16.5637Z" fill="#74A8D9"/>
<path d="M99.8033 1.03354H96.591C96.3518 1.03354 96.1578 1.25892 96.1578 1.53694V37.928C96.1578 38.206 96.3518 38.4314 96.591 38.4314H99.8033C100.042 38.4314 100.236 38.206 100.236 37.928V1.53694C100.236 1.25892 100.042 1.03354 99.8033 1.03354Z" fill="#74A8D9"/>
<path d="M108.752 1.03354H105.539C105.3 1.03354 105.106 1.25892 105.106 1.53694V37.928C105.106 38.206 105.3 38.4314 105.539 38.4314H108.752C108.991 38.4314 109.185 38.206 109.185 37.928V1.53694C109.185 1.25892 108.991 1.03354 108.752 1.03354Z" fill="#74A8D9"/>
<path d="M124.708 12.0161C118.371 12.0161 113.217 18.0058 113.217 25.3697C113.217 32.7335 114.395 32.7262 116.534 35.2578C118.66 37.7748 121.594 39.161 124.792 39.161C127.989 39.161 129.362 38.3633 131.204 36.9163C133.223 35.3307 134.669 33.0326 135.385 30.2699C135.464 29.966 135.268 29.6571 134.994 29.6571H131.731C131.568 29.6571 131.421 29.769 131.356 29.9441C130.155 33.1712 127.192 34.6133 124.79 34.6133C120.818 34.6133 117.997 31.7218 117.394 27.1522C117.354 26.8483 117.56 26.5734 117.823 26.5734H135.412C135.638 26.5734 135.82 26.3619 135.82 26.0992C135.82 22.2519 134.734 18.716 132.763 16.1381C130.731 13.4825 127.87 12.0185 124.706 12.0185L124.708 12.0161ZM124.708 16.5637C127.868 16.5637 130.072 18.3585 131.011 21.6537C131.105 21.982 130.898 22.32 130.601 22.32H118.296C117.989 22.32 117.779 21.9553 117.896 21.6245C119.01 18.4703 121.529 16.5637 124.708 16.5637Z" fill="#74A8D9"/>
<path d="M145.482 12.1936V6.20137C145.482 5.92413 145.287 5.69797 145.049 5.69797H141.834C141.596 5.69797 141.401 5.92413 141.401 6.20137V12.1936C141.401 12.4708 141.207 12.697 140.968 12.697H137.358C137.12 12.697 136.925 12.9232 136.925 13.2004V16.5467C136.925 16.8239 137.12 17.0501 137.358 17.0501H140.968C141.207 17.0501 141.401 17.2763 141.401 17.5535V37.9305C141.401 38.2077 141.596 38.4339 141.834 38.4339H145.049C145.287 38.4339 145.482 38.2077 145.482 37.9305V17.5535C145.482 17.2763 145.677 17.0501 145.915 17.0501H149.567C149.805 17.0501 150 16.8239 150 16.5467V13.2004C150 12.9232 149.805 12.697 149.567 12.697H145.915C145.677 12.697 145.482 12.4708 145.482 12.1936Z" fill="#74A8D9"/>
<path d="M7.88291 3.53358C7.7406 3.3366 7.49367 3.29282 7.30951 3.43874C3.89847 6.12356 1.42285 10.3624 0.46022 15.0073C-0.500313 19.6425 0.0563355 24.6134 2.00251 28.8084C3.69548 32.4563 6.38037 35.4426 9.59471 37.2374C11.8485 38.4971 14.3346 39.1562 16.8353 39.1562C19.8948 39.1562 22.7639 38.2126 25.2374 36.5564L22.6801 33.0083C20.9265 34.0394 18.9447 34.6231 16.8437 34.6231C13.2464 34.6231 9.76003 32.8454 7.32207 29.7714C4.76902 26.5516 2.9756 21.2841 4.2312 16.931C4.8611 14.7471 6.61684 13.733 8.49187 14.3434C12.062 15.5034 14.2927 19.5866 16.5444 22.7116L28.8744 39.8201C29.0293 40.0341 29.3013 40.0608 29.4834 39.8809L31.8502 37.5778C32.0344 37.3979 32.0574 37.0817 31.9025 36.8702L7.88291 3.53358Z" fill="#74A8D9"/>
<path d="M16.9379 0.00243168C14.0521 -0.0170236 11.3337 0.809825 8.95434 2.2787C8.71159 2.42947 8.64881 2.80156 8.8246 3.04718L20.9851 19.9197C21.1399 20.1338 21.412 20.1605 21.594 19.9805L21.6882 19.8881C21.8724 19.7082 21.8954 19.392 21.7405 19.1804C21.7405 19.1804 16.3833 11.7072 15.2867 8.83025C14.8013 7.5535 14.2969 5.59582 15.6948 4.84922C18.1684 3.53113 21.4308 5.19455 23.5632 6.71936C27.3782 9.44553 29.7826 14.3604 29.7826 19.5744C29.7826 22.945 28.8284 26.0603 27.2149 28.5676L29.7722 32.1158C32.2143 28.7184 33.6834 24.3458 33.6834 19.5744C33.6834 8.79378 26.2105 0.0583658 16.9337 0L16.9379 0.00243168Z" fill="#74A8D9"/>
</svg>
