<svg width="20" height="16" viewBox="0 0 20 16" fill="none" xmlns="http://www.w3.org/2000/svg">
<path d="M1.09919 8.467C1.0219 8.32329 0.981445 8.16267 0.981445 7.9995C0.981445 7.83633 1.0219 7.6757 1.09919 7.532C2.99119 4.033 6.48619 1 9.98119 1C13.4762 1 16.9712 4.033 18.8632 7.533C18.9405 7.67671 18.9809 7.83733 18.9809 8.0005C18.9809 8.16367 18.9405 8.3243 18.8632 8.468C16.9712 11.967 13.4762 15 9.98119 15C6.48619 15 2.99119 11.967 1.09919 8.467V8.467Z" stroke="#3D8DFF" stroke-width="1.5" stroke-linecap="round" stroke-linejoin="round"/>
<path d="M12.0276 5.80417C12.3189 6.07971 12.552 6.41087 12.7132 6.77805C12.8743 7.14523 12.9602 7.54099 12.9658 7.94194C12.9714 8.34289 12.8965 8.74089 12.7457 9.11241C12.5948 9.48393 12.371 9.82144 12.0874 10.105C11.8039 10.3885 11.4664 10.6123 11.0949 10.7632C10.7233 10.9141 10.3253 10.9889 9.92439 10.9834C9.52344 10.9778 9.12768 10.8919 8.76049 10.7307C8.39331 10.5696 8.06216 10.3365 7.78661 10.0452C7.25669 9.47647 6.9682 8.72428 6.98191 7.94708C6.99563 7.16987 7.31047 6.42833 7.86013 5.87868C8.40978 5.32903 9.15132 5.01418 9.92852 5.00047C10.7057 4.98675 11.4579 5.27525 12.0266 5.80517" stroke="#3D8DFF" stroke-width="1.429" stroke-linecap="round" stroke-linejoin="round"/>
</svg>
