<svg width="716" height="336" viewBox="0 0 716 336" fill="none" xmlns="http://www.w3.org/2000/svg">
<path d="M24.5845 60.1433V51.6353H23.8045C23.7485 51.9553 23.6445 52.2193 23.4925 52.4273C23.3405 52.6353 23.1525 52.7993 22.9285 52.9193C22.7125 53.0393 22.4685 53.1233 22.1965 53.1713C21.9245 53.2113 21.6445 53.2313 21.3565 53.2313V54.0473H23.5645V60.1433H24.5845ZM27.9765 58.8113V60.1433H28.6845C28.6925 60.2393 28.6845 60.3433 28.6605 60.4553C28.6445 60.5673 28.6085 60.6753 28.5525 60.7793C28.4965 60.8913 28.4205 60.9913 28.3245 61.0793C28.2365 61.1753 28.1245 61.2473 27.9885 61.2953V61.8953C28.4525 61.7593 28.7885 61.5273 28.9965 61.1993C29.2045 60.8713 29.3085 60.4793 29.3085 60.0233V58.8113H27.9765ZM31.9043 55.9553C31.9043 55.7473 31.9043 55.5193 31.9043 55.2713C31.9123 55.0153 31.9323 54.7633 31.9643 54.5153C32.0043 54.2593 32.0563 54.0113 32.1203 53.7713C32.1923 53.5313 32.2923 53.3233 32.4203 53.1473C32.5563 52.9633 32.7243 52.8153 32.9243 52.7033C33.1243 52.5913 33.3683 52.5353 33.6563 52.5353C33.9443 52.5353 34.1883 52.5913 34.3883 52.7033C34.5883 52.8153 34.7523 52.9633 34.8803 53.1473C35.0163 53.3233 35.1163 53.5313 35.1803 53.7713C35.2523 54.0113 35.3043 54.2593 35.3363 54.5153C35.3763 54.7633 35.3963 55.0153 35.3963 55.2713C35.4043 55.5193 35.4083 55.7473 35.4083 55.9553C35.4083 56.2753 35.3963 56.6353 35.3723 57.0353C35.3563 57.4273 35.2923 57.7993 35.1803 58.1513C35.0763 58.4953 34.9043 58.7873 34.6643 59.0273C34.4243 59.2673 34.0883 59.3873 33.6563 59.3873C33.2243 59.3873 32.8883 59.2673 32.6483 59.0273C32.4083 58.7873 32.2323 58.4953 32.1203 58.1513C32.0163 57.7993 31.9523 57.4273 31.9283 57.0353C31.9123 56.6353 31.9043 56.2753 31.9043 55.9553ZM30.8243 55.9673C30.8243 56.2793 30.8323 56.6033 30.8483 56.9393C30.8643 57.2753 30.9043 57.6033 30.9683 57.9233C31.0323 58.2433 31.1243 58.5473 31.2443 58.8353C31.3643 59.1153 31.5283 59.3633 31.7363 59.5793C31.9443 59.7953 32.2043 59.9673 32.5163 60.0953C32.8363 60.2153 33.2163 60.2753 33.6563 60.2753C34.1043 60.2753 34.4843 60.2153 34.7963 60.0953C35.1083 59.9673 35.3683 59.7953 35.5763 59.5793C35.7843 59.3633 35.9483 59.1153 36.0683 58.8353C36.1883 58.5473 36.2803 58.2433 36.3443 57.9233C36.4083 57.6033 36.4483 57.2753 36.4643 56.9393C36.4803 56.6033 36.4883 56.2793 36.4883 55.9673C36.4883 55.6553 36.4803 55.3313 36.4643 54.9953C36.4483 54.6593 36.4083 54.3313 36.3443 54.0113C36.2803 53.6913 36.1883 53.3873 36.0683 53.0993C35.9483 52.8113 35.7843 52.5593 35.5763 52.3433C35.3683 52.1273 35.1043 51.9553 34.7843 51.8273C34.4723 51.6993 34.0963 51.6353 33.6563 51.6353C33.2163 51.6353 32.8363 51.6993 32.5163 51.8273C32.2043 51.9553 31.9443 52.1273 31.7363 52.3433C31.5283 52.5593 31.3643 52.8113 31.2443 53.0993C31.1243 53.3873 31.0323 53.6913 30.9683 54.0113C30.9043 54.3313 30.8643 54.6593 30.8483 54.9953C30.8323 55.3313 30.8243 55.6553 30.8243 55.9673ZM38.5723 55.9553C38.5723 55.7473 38.5723 55.5193 38.5723 55.2713C38.5803 55.0153 38.6003 54.7633 38.6323 54.5153C38.6723 54.2593 38.7243 54.0113 38.7883 53.7713C38.8603 53.5313 38.9603 53.3233 39.0883 53.1473C39.2243 52.9633 39.3923 52.8153 39.5923 52.7033C39.7923 52.5913 40.0363 52.5353 40.3243 52.5353C40.6123 52.5353 40.8563 52.5913 41.0563 52.7033C41.2563 52.8153 41.4203 52.9633 41.5483 53.1473C41.6843 53.3233 41.7843 53.5313 41.8483 53.7713C41.9203 54.0113 41.9723 54.2593 42.0043 54.5153C42.0443 54.7633 42.0643 55.0153 42.0643 55.2713C42.0723 55.5193 42.0763 55.7473 42.0763 55.9553C42.0763 56.2753 42.0643 56.6353 42.0403 57.0353C42.0243 57.4273 41.9603 57.7993 41.8483 58.1513C41.7443 58.4953 41.5723 58.7873 41.3323 59.0273C41.0923 59.2673 40.7563 59.3873 40.3243 59.3873C39.8923 59.3873 39.5563 59.2673 39.3163 59.0273C39.0763 58.7873 38.9003 58.4953 38.7883 58.1513C38.6843 57.7993 38.6203 57.4273 38.5963 57.0353C38.5803 56.6353 38.5723 56.2753 38.5723 55.9553ZM37.4923 55.9673C37.4923 56.2793 37.5003 56.6033 37.5163 56.9393C37.5323 57.2753 37.5723 57.6033 37.6363 57.9233C37.7003 58.2433 37.7923 58.5473 37.9123 58.8353C38.0323 59.1153 38.1963 59.3633 38.4043 59.5793C38.6123 59.7953 38.8723 59.9673 39.1843 60.0953C39.5043 60.2153 39.8843 60.2753 40.3243 60.2753C40.7723 60.2753 41.1523 60.2153 41.4643 60.0953C41.7763 59.9673 42.0363 59.7953 42.2443 59.5793C42.4523 59.3633 42.6163 59.1153 42.7363 58.8353C42.8563 58.5473 42.9483 58.2433 43.0123 57.9233C43.0763 57.6033 43.1163 57.2753 43.1323 56.9393C43.1483 56.6033 43.1563 56.2793 43.1563 55.9673C43.1563 55.6553 43.1483 55.3313 43.1323 54.9953C43.1163 54.6593 43.0763 54.3313 43.0123 54.0113C42.9483 53.6913 42.8563 53.3873 42.7363 53.0993C42.6163 52.8113 42.4523 52.5593 42.2443 52.3433C42.0363 52.1273 41.7723 51.9553 41.4523 51.8273C41.1403 51.6993 40.7643 51.6353 40.3243 51.6353C39.8843 51.6353 39.5043 51.6993 39.1843 51.8273C38.8723 51.9553 38.6123 52.1273 38.4043 52.3433C38.1963 52.5593 38.0323 52.8113 37.9123 53.0993C37.7923 53.3873 37.7003 53.6913 37.6363 54.0113C37.5723 54.3313 37.5323 54.6593 37.5163 54.9953C37.5003 55.3313 37.4923 55.6553 37.4923 55.9673ZM45.2402 55.9553C45.2402 55.7473 45.2402 55.5193 45.2402 55.2713C45.2483 55.0153 45.2683 54.7633 45.3003 54.5153C45.3403 54.2593 45.3923 54.0113 45.4563 53.7713C45.5283 53.5313 45.6283 53.3233 45.7563 53.1473C45.8923 52.9633 46.0603 52.8153 46.2603 52.7033C46.4603 52.5913 46.7043 52.5353 46.9923 52.5353C47.2803 52.5353 47.5243 52.5913 47.7243 52.7033C47.9243 52.8153 48.0883 52.9633 48.2163 53.1473C48.3523 53.3233 48.4523 53.5313 48.5163 53.7713C48.5883 54.0113 48.6403 54.2593 48.6723 54.5153C48.7123 54.7633 48.7323 55.0153 48.7323 55.2713C48.7403 55.5193 48.7443 55.7473 48.7443 55.9553C48.7443 56.2753 48.7323 56.6353 48.7083 57.0353C48.6923 57.4273 48.6283 57.7993 48.5163 58.1513C48.4123 58.4953 48.2403 58.7873 48.0003 59.0273C47.7603 59.2673 47.4243 59.3873 46.9923 59.3873C46.5603 59.3873 46.2243 59.2673 45.9843 59.0273C45.7443 58.7873 45.5683 58.4953 45.4563 58.1513C45.3523 57.7993 45.2883 57.4273 45.2643 57.0353C45.2483 56.6353 45.2402 56.2753 45.2402 55.9553ZM44.1603 55.9673C44.1603 56.2793 44.1683 56.6033 44.1843 56.9393C44.2003 57.2753 44.2403 57.6033 44.3043 57.9233C44.3683 58.2433 44.4603 58.5473 44.5803 58.8353C44.7003 59.1153 44.8643 59.3633 45.0723 59.5793C45.2803 59.7953 45.5403 59.9673 45.8523 60.0953C46.1723 60.2153 46.5523 60.2753 46.9923 60.2753C47.4403 60.2753 47.8203 60.2153 48.1323 60.0953C48.4443 59.9673 48.7043 59.7953 48.9123 59.5793C49.1203 59.3633 49.2843 59.1153 49.4043 58.8353C49.5243 58.5473 49.6163 58.2433 49.6803 57.9233C49.7443 57.6033 49.7843 57.2753 49.8003 56.9393C49.8163 56.6033 49.8242 56.2793 49.8242 55.9673C49.8242 55.6553 49.8163 55.3313 49.8003 54.9953C49.7843 54.6593 49.7443 54.3313 49.6803 54.0113C49.6163 53.6913 49.5243 53.3873 49.4043 53.0993C49.2843 52.8113 49.1203 52.5593 48.9123 52.3433C48.7043 52.1273 48.4403 51.9553 48.1203 51.8273C47.8083 51.6993 47.4323 51.6353 46.9923 51.6353C46.5523 51.6353 46.1723 51.6993 45.8523 51.8273C45.5403 51.9553 45.2803 52.1273 45.0723 52.3433C44.8643 52.5593 44.7003 52.8113 44.5803 53.0993C44.4603 53.3873 44.3683 53.6913 44.3043 54.0113C44.2403 54.3313 44.2003 54.6593 44.1843 54.9953C44.1683 55.3313 44.1603 55.6553 44.1603 55.9673ZM51.3202 58.8113V60.1433H52.6522V58.8113H51.3202ZM55.2481 55.9553C55.2481 55.7473 55.2481 55.5193 55.2481 55.2713C55.2561 55.0153 55.2761 54.7633 55.3081 54.5153C55.3481 54.2593 55.4001 54.0113 55.4641 53.7713C55.5361 53.5313 55.6361 53.3233 55.7641 53.1473C55.9001 52.9633 56.0681 52.8153 56.2681 52.7033C56.4681 52.5913 56.7121 52.5353 57.0001 52.5353C57.2881 52.5353 57.5321 52.5913 57.7321 52.7033C57.9321 52.8153 58.0961 52.9633 58.2241 53.1473C58.3601 53.3233 58.4601 53.5313 58.5241 53.7713C58.5961 54.0113 58.6481 54.2593 58.6801 54.5153C58.7201 54.7633 58.7401 55.0153 58.7401 55.2713C58.7481 55.5193 58.7521 55.7473 58.7521 55.9553C58.7521 56.2753 58.7401 56.6353 58.7161 57.0353C58.7001 57.4273 58.6361 57.7993 58.5241 58.1513C58.4201 58.4953 58.2481 58.7873 58.0081 59.0273C57.7681 59.2673 57.4321 59.3873 57.0001 59.3873C56.5681 59.3873 56.2321 59.2673 55.9921 59.0273C55.7521 58.7873 55.5761 58.4953 55.4641 58.1513C55.3601 57.7993 55.2961 57.4273 55.2721 57.0353C55.2561 56.6353 55.2481 56.2753 55.2481 55.9553ZM54.1681 55.9673C54.1681 56.2793 54.1761 56.6033 54.1921 56.9393C54.2081 57.2753 54.2481 57.6033 54.3121 57.9233C54.3761 58.2433 54.4681 58.5473 54.5881 58.8353C54.7081 59.1153 54.8721 59.3633 55.0801 59.5793C55.2881 59.7953 55.5481 59.9673 55.8601 60.0953C56.1801 60.2153 56.5601 60.2753 57.0001 60.2753C57.4481 60.2753 57.8281 60.2153 58.1401 60.0953C58.4521 59.9673 58.7121 59.7953 58.9201 59.5793C59.1281 59.3633 59.2921 59.1153 59.4121 58.8353C59.5321 58.5473 59.6241 58.2433 59.6881 57.9233C59.7521 57.6033 59.7921 57.2753 59.8081 56.9393C59.8241 56.6033 59.8321 56.2793 59.8321 55.9673C59.8321 55.6553 59.8241 55.3313 59.8081 54.9953C59.7921 54.6593 59.7521 54.3313 59.6881 54.0113C59.6241 53.6913 59.5321 53.3873 59.4121 53.0993C59.2921 52.8113 59.1281 52.5593 58.9201 52.3433C58.7121 52.1273 58.4481 51.9553 58.1281 51.8273C57.8161 51.6993 57.4401 51.6353 57.0001 51.6353C56.5601 51.6353 56.1801 51.6993 55.8601 51.8273C55.5481 51.9553 55.2881 52.1273 55.0801 52.3433C54.8721 52.5593 54.7081 52.8113 54.5881 53.0993C54.4681 53.3873 54.3761 53.6913 54.3121 54.0113C54.2481 54.3313 54.2081 54.6593 54.1921 54.9953C54.1761 55.3313 54.1681 55.6553 54.1681 55.9673ZM61.916 55.9553C61.916 55.7473 61.916 55.5193 61.916 55.2713C61.924 55.0153 61.944 54.7633 61.976 54.5153C62.016 54.2593 62.068 54.0113 62.132 53.7713C62.204 53.5313 62.304 53.3233 62.432 53.1473C62.568 52.9633 62.736 52.8153 62.936 52.7033C63.136 52.5913 63.38 52.5353 63.668 52.5353C63.956 52.5353 64.2 52.5913 64.4 52.7033C64.6 52.8153 64.764 52.9633 64.892 53.1473C65.028 53.3233 65.128 53.5313 65.192 53.7713C65.264 54.0113 65.316 54.2593 65.348 54.5153C65.388 54.7633 65.408 55.0153 65.408 55.2713C65.416 55.5193 65.42 55.7473 65.42 55.9553C65.42 56.2753 65.408 56.6353 65.384 57.0353C65.368 57.4273 65.304 57.7993 65.192 58.1513C65.088 58.4953 64.916 58.7873 64.676 59.0273C64.436 59.2673 64.1 59.3873 63.668 59.3873C63.236 59.3873 62.9 59.2673 62.66 59.0273C62.42 58.7873 62.244 58.4953 62.132 58.1513C62.028 57.7993 61.964 57.4273 61.94 57.0353C61.924 56.6353 61.916 56.2753 61.916 55.9553ZM60.836 55.9673C60.836 56.2793 60.844 56.6033 60.86 56.9393C60.876 57.2753 60.916 57.6033 60.98 57.9233C61.044 58.2433 61.136 58.5473 61.256 58.8353C61.376 59.1153 61.54 59.3633 61.748 59.5793C61.956 59.7953 62.216 59.9673 62.528 60.0953C62.848 60.2153 63.228 60.2753 63.668 60.2753C64.116 60.2753 64.496 60.2153 64.808 60.0953C65.12 59.9673 65.38 59.7953 65.588 59.5793C65.796 59.3633 65.96 59.1153 66.08 58.8353C66.2 58.5473 66.292 58.2433 66.356 57.9233C66.42 57.6033 66.46 57.2753 66.476 56.9393C66.492 56.6033 66.5 56.2793 66.5 55.9673C66.5 55.6553 66.492 55.3313 66.476 54.9953C66.46 54.6593 66.42 54.3313 66.356 54.0113C66.292 53.6913 66.2 53.3873 66.08 53.0993C65.96 52.8113 65.796 52.5593 65.588 52.3433C65.38 52.1273 65.116 51.9553 64.796 51.8273C64.484 51.6993 64.108 51.6353 63.668 51.6353C63.228 51.6353 62.848 51.6993 62.528 51.8273C62.216 51.9553 61.956 52.1273 61.748 52.3433C61.54 52.5593 61.376 52.8113 61.256 53.0993C61.136 53.3873 61.044 53.6913 60.98 54.0113C60.916 54.3313 60.876 54.6593 60.86 54.9953C60.844 55.3313 60.836 55.6553 60.836 55.9673Z" fill="#86909C"/>
<path d="M75 56.1433H696" stroke="#E5E6EB" stroke-dasharray="4 4"/>
<path d="M32.1803 100.734C32.1803 100.518 32.2203 100.33 32.3003 100.17C32.3803 100.01 32.4843 99.8743 32.6123 99.7623C32.7483 99.6503 32.9083 99.5663 33.0923 99.5103C33.2763 99.4543 33.4683 99.4263 33.6683 99.4263C34.0843 99.4263 34.4243 99.5383 34.6883 99.7623C34.9603 99.9783 35.0963 100.302 35.0963 100.734C35.0963 101.166 34.9643 101.502 34.7003 101.742C34.4363 101.982 34.1003 102.102 33.6923 102.102C33.4843 102.102 33.2883 102.074 33.1043 102.018C32.9203 101.962 32.7603 101.878 32.6243 101.766C32.4883 101.654 32.3803 101.514 32.3003 101.346C32.2203 101.17 32.1803 100.966 32.1803 100.734ZM31.1003 100.698C31.1003 101.082 31.2083 101.438 31.4243 101.766C31.6403 102.086 31.9283 102.318 32.2883 102.462C31.8083 102.63 31.4403 102.902 31.1843 103.278C30.9283 103.646 30.8003 104.082 30.8003 104.586C30.8003 105.018 30.8723 105.398 31.0163 105.726C31.1683 106.046 31.3723 106.314 31.6283 106.53C31.8923 106.746 32.2003 106.906 32.5523 107.01C32.9043 107.114 33.2843 107.166 33.6923 107.166C34.0843 107.166 34.4523 107.11 34.7963 106.998C35.1403 106.886 35.4363 106.722 35.6843 106.506C35.9403 106.282 36.1403 106.01 36.2843 105.69C36.4363 105.37 36.5123 105.002 36.5123 104.586C36.5123 104.058 36.3883 103.614 36.1403 103.254C35.8923 102.886 35.5123 102.622 35.0003 102.462C35.3603 102.302 35.6443 102.066 35.8523 101.754C36.0683 101.434 36.1763 101.082 36.1763 100.698C36.1763 100.426 36.1283 100.162 36.0323 99.9063C35.9363 99.6423 35.7843 99.4103 35.5763 99.2103C35.3763 99.0023 35.1123 98.8383 34.7843 98.7183C34.4563 98.5903 34.0603 98.5263 33.5963 98.5263C33.2683 98.5263 32.9523 98.5743 32.6483 98.6703C32.3523 98.7663 32.0883 98.9063 31.8563 99.0903C31.6243 99.2743 31.4403 99.5023 31.3043 99.7743C31.1683 100.038 31.1003 100.346 31.1003 100.698ZM31.8803 104.634C31.8803 104.386 31.9243 104.162 32.0123 103.962C32.1083 103.762 32.2363 103.59 32.3963 103.446C32.5643 103.302 32.7563 103.194 32.9723 103.122C33.1963 103.042 33.4323 103.002 33.6803 103.002C33.9203 103.002 34.1443 103.046 34.3523 103.134C34.5683 103.214 34.7563 103.326 34.9163 103.47C35.0763 103.614 35.2003 103.786 35.2883 103.986C35.3843 104.178 35.4323 104.39 35.4323 104.622C35.4323 104.862 35.3883 105.082 35.3003 105.282C35.2203 105.482 35.1003 105.658 34.9403 105.81C34.7883 105.954 34.6043 106.07 34.3883 106.158C34.1803 106.238 33.9483 106.278 33.6923 106.278C33.1643 106.278 32.7283 106.134 32.3843 105.846C32.0483 105.55 31.8803 105.146 31.8803 104.634ZM38.5723 102.846C38.5723 102.638 38.5723 102.41 38.5723 102.162C38.5803 101.906 38.6003 101.654 38.6323 101.406C38.6723 101.15 38.7243 100.902 38.7883 100.662C38.8603 100.422 38.9603 100.214 39.0883 100.038C39.2243 99.8543 39.3923 99.7063 39.5923 99.5943C39.7923 99.4823 40.0363 99.4263 40.3243 99.4263C40.6123 99.4263 40.8563 99.4823 41.0563 99.5943C41.2563 99.7063 41.4203 99.8543 41.5483 100.038C41.6843 100.214 41.7843 100.422 41.8483 100.662C41.9203 100.902 41.9723 101.15 42.0043 101.406C42.0443 101.654 42.0643 101.906 42.0643 102.162C42.0723 102.41 42.0763 102.638 42.0763 102.846C42.0763 103.166 42.0643 103.526 42.0403 103.926C42.0243 104.318 41.9603 104.69 41.8483 105.042C41.7443 105.386 41.5723 105.678 41.3323 105.918C41.0923 106.158 40.7563 106.278 40.3243 106.278C39.8923 106.278 39.5563 106.158 39.3163 105.918C39.0763 105.678 38.9003 105.386 38.7883 105.042C38.6843 104.69 38.6203 104.318 38.5963 103.926C38.5803 103.526 38.5723 103.166 38.5723 102.846ZM37.4923 102.858C37.4923 103.17 37.5003 103.494 37.5163 103.83C37.5323 104.166 37.5723 104.494 37.6363 104.814C37.7003 105.134 37.7923 105.438 37.9123 105.726C38.0323 106.006 38.1963 106.254 38.4043 106.47C38.6123 106.686 38.8723 106.858 39.1843 106.986C39.5043 107.106 39.8843 107.166 40.3243 107.166C40.7723 107.166 41.1523 107.106 41.4643 106.986C41.7763 106.858 42.0363 106.686 42.2443 106.47C42.4523 106.254 42.6163 106.006 42.7363 105.726C42.8563 105.438 42.9483 105.134 43.0123 104.814C43.0763 104.494 43.1163 104.166 43.1323 103.83C43.1483 103.494 43.1563 103.17 43.1563 102.858C43.1563 102.546 43.1483 102.222 43.1323 101.886C43.1163 101.55 43.0763 101.222 43.0123 100.902C42.9483 100.582 42.8563 100.278 42.7363 99.9903C42.6163 99.7023 42.4523 99.4503 42.2443 99.2343C42.0363 99.0183 41.7723 98.8463 41.4523 98.7183C41.1403 98.5903 40.7643 98.5263 40.3243 98.5263C39.8843 98.5263 39.5043 98.5903 39.1843 98.7183C38.8723 98.8463 38.6123 99.0183 38.4043 99.2343C38.1963 99.4503 38.0323 99.7023 37.9123 99.9903C37.7923 100.278 37.7003 100.582 37.6363 100.902C37.5723 101.222 37.5323 101.55 37.5163 101.886C37.5003 102.222 37.4923 102.546 37.4923 102.858ZM45.2402 102.846C45.2402 102.638 45.2402 102.41 45.2402 102.162C45.2483 101.906 45.2683 101.654 45.3003 101.406C45.3403 101.15 45.3923 100.902 45.4563 100.662C45.5283 100.422 45.6283 100.214 45.7563 100.038C45.8923 99.8543 46.0603 99.7063 46.2603 99.5943C46.4603 99.4823 46.7043 99.4263 46.9923 99.4263C47.2803 99.4263 47.5243 99.4823 47.7243 99.5943C47.9243 99.7063 48.0883 99.8543 48.2163 100.038C48.3523 100.214 48.4523 100.422 48.5163 100.662C48.5883 100.902 48.6403 101.15 48.6723 101.406C48.7123 101.654 48.7323 101.906 48.7323 102.162C48.7403 102.41 48.7443 102.638 48.7443 102.846C48.7443 103.166 48.7323 103.526 48.7083 103.926C48.6923 104.318 48.6283 104.69 48.5163 105.042C48.4123 105.386 48.2403 105.678 48.0003 105.918C47.7603 106.158 47.4243 106.278 46.9923 106.278C46.5603 106.278 46.2243 106.158 45.9843 105.918C45.7443 105.678 45.5683 105.386 45.4563 105.042C45.3523 104.69 45.2883 104.318 45.2643 103.926C45.2483 103.526 45.2402 103.166 45.2402 102.846ZM44.1603 102.858C44.1603 103.17 44.1683 103.494 44.1843 103.83C44.2003 104.166 44.2403 104.494 44.3043 104.814C44.3683 105.134 44.4603 105.438 44.5803 105.726C44.7003 106.006 44.8643 106.254 45.0723 106.47C45.2803 106.686 45.5403 106.858 45.8523 106.986C46.1723 107.106 46.5523 107.166 46.9923 107.166C47.4403 107.166 47.8203 107.106 48.1323 106.986C48.4443 106.858 48.7043 106.686 48.9123 106.47C49.1203 106.254 49.2843 106.006 49.4043 105.726C49.5243 105.438 49.6163 105.134 49.6803 104.814C49.7443 104.494 49.7843 104.166 49.8003 103.83C49.8163 103.494 49.8242 103.17 49.8242 102.858C49.8242 102.546 49.8163 102.222 49.8003 101.886C49.7843 101.55 49.7443 101.222 49.6803 100.902C49.6163 100.582 49.5243 100.278 49.4043 99.9903C49.2843 99.7023 49.1203 99.4503 48.9123 99.2343C48.7043 99.0183 48.4403 98.8463 48.1203 98.7183C47.8083 98.5903 47.4323 98.5263 46.9923 98.5263C46.5523 98.5263 46.1723 98.5903 45.8523 98.7183C45.5403 98.8463 45.2803 99.0183 45.0723 99.2343C44.8643 99.4503 44.7003 99.7023 44.5803 99.9903C44.4603 100.278 44.3683 100.582 44.3043 100.902C44.2403 101.222 44.2003 101.55 44.1843 101.886C44.1683 102.222 44.1603 102.546 44.1603 102.858ZM51.3202 105.702V107.034H52.6522V105.702H51.3202ZM55.2481 102.846C55.2481 102.638 55.2481 102.41 55.2481 102.162C55.2561 101.906 55.2761 101.654 55.3081 101.406C55.3481 101.15 55.4001 100.902 55.4641 100.662C55.5361 100.422 55.6361 100.214 55.7641 100.038C55.9001 99.8543 56.0681 99.7063 56.2681 99.5943C56.4681 99.4823 56.7121 99.4263 57.0001 99.4263C57.2881 99.4263 57.5321 99.4823 57.7321 99.5943C57.9321 99.7063 58.0961 99.8543 58.2241 100.038C58.3601 100.214 58.4601 100.422 58.5241 100.662C58.5961 100.902 58.6481 101.15 58.6801 101.406C58.7201 101.654 58.7401 101.906 58.7401 102.162C58.7481 102.41 58.7521 102.638 58.7521 102.846C58.7521 103.166 58.7401 103.526 58.7161 103.926C58.7001 104.318 58.6361 104.69 58.5241 105.042C58.4201 105.386 58.2481 105.678 58.0081 105.918C57.7681 106.158 57.4321 106.278 57.0001 106.278C56.5681 106.278 56.2321 106.158 55.9921 105.918C55.7521 105.678 55.5761 105.386 55.4641 105.042C55.3601 104.69 55.2961 104.318 55.2721 103.926C55.2561 103.526 55.2481 103.166 55.2481 102.846ZM54.1681 102.858C54.1681 103.17 54.1761 103.494 54.1921 103.83C54.2081 104.166 54.2481 104.494 54.3121 104.814C54.3761 105.134 54.4681 105.438 54.5881 105.726C54.7081 106.006 54.8721 106.254 55.0801 106.47C55.2881 106.686 55.5481 106.858 55.8601 106.986C56.1801 107.106 56.5601 107.166 57.0001 107.166C57.4481 107.166 57.8281 107.106 58.1401 106.986C58.4521 106.858 58.7121 106.686 58.9201 106.47C59.1281 106.254 59.2921 106.006 59.4121 105.726C59.5321 105.438 59.6241 105.134 59.6881 104.814C59.7521 104.494 59.7921 104.166 59.8081 103.83C59.8241 103.494 59.8321 103.17 59.8321 102.858C59.8321 102.546 59.8241 102.222 59.8081 101.886C59.7921 101.55 59.7521 101.222 59.6881 100.902C59.6241 100.582 59.5321 100.278 59.4121 99.9903C59.2921 99.7023 59.1281 99.4503 58.9201 99.2343C58.7121 99.0183 58.4481 98.8463 58.1281 98.7183C57.8161 98.5903 57.4401 98.5263 57.0001 98.5263C56.5601 98.5263 56.1801 98.5903 55.8601 98.7183C55.5481 98.8463 55.2881 99.0183 55.0801 99.2343C54.8721 99.4503 54.7081 99.7023 54.5881 99.9903C54.4681 100.278 54.3761 100.582 54.3121 100.902C54.2481 101.222 54.2081 101.55 54.1921 101.886C54.1761 102.222 54.1681 102.546 54.1681 102.858ZM61.916 102.846C61.916 102.638 61.916 102.41 61.916 102.162C61.924 101.906 61.944 101.654 61.976 101.406C62.016 101.15 62.068 100.902 62.132 100.662C62.204 100.422 62.304 100.214 62.432 100.038C62.568 99.8543 62.736 99.7063 62.936 99.5943C63.136 99.4823 63.38 99.4263 63.668 99.4263C63.956 99.4263 64.2 99.4823 64.4 99.5943C64.6 99.7063 64.764 99.8543 64.892 100.038C65.028 100.214 65.128 100.422 65.192 100.662C65.264 100.902 65.316 101.15 65.348 101.406C65.388 101.654 65.408 101.906 65.408 102.162C65.416 102.41 65.42 102.638 65.42 102.846C65.42 103.166 65.408 103.526 65.384 103.926C65.368 104.318 65.304 104.69 65.192 105.042C65.088 105.386 64.916 105.678 64.676 105.918C64.436 106.158 64.1 106.278 63.668 106.278C63.236 106.278 62.9 106.158 62.66 105.918C62.42 105.678 62.244 105.386 62.132 105.042C62.028 104.69 61.964 104.318 61.94 103.926C61.924 103.526 61.916 103.166 61.916 102.846ZM60.836 102.858C60.836 103.17 60.844 103.494 60.86 103.83C60.876 104.166 60.916 104.494 60.98 104.814C61.044 105.134 61.136 105.438 61.256 105.726C61.376 106.006 61.54 106.254 61.748 106.47C61.956 106.686 62.216 106.858 62.528 106.986C62.848 107.106 63.228 107.166 63.668 107.166C64.116 107.166 64.496 107.106 64.808 106.986C65.12 106.858 65.38 106.686 65.588 106.47C65.796 106.254 65.96 106.006 66.08 105.726C66.2 105.438 66.292 105.134 66.356 104.814C66.42 104.494 66.46 104.166 66.476 103.83C66.492 103.494 66.5 103.17 66.5 102.858C66.5 102.546 66.492 102.222 66.476 101.886C66.46 101.55 66.42 101.222 66.356 100.902C66.292 100.582 66.2 100.278 66.08 99.9903C65.96 99.7023 65.796 99.4503 65.588 99.2343C65.38 99.0183 65.116 98.8463 64.796 98.7183C64.484 98.5903 64.108 98.5263 63.668 98.5263C63.228 98.5263 62.848 98.5903 62.528 98.7183C62.216 98.8463 61.956 99.0183 61.748 99.2343C61.54 99.4503 61.376 99.7023 61.256 99.9903C61.136 100.278 61.044 100.582 60.98 100.902C60.916 101.222 60.876 101.55 60.86 101.886C60.844 102.222 60.836 102.546 60.836 102.858Z" fill="#86909C"/>
<path d="M75 103.034H696" stroke="#E5E6EB" stroke-dasharray="4 4"/>
<path d="M35.2883 147.593H36.3083C36.2443 146.889 36.0043 146.353 35.5883 145.985C35.1723 145.609 34.6123 145.421 33.9083 145.421C33.3003 145.421 32.7963 145.549 32.3963 145.805C31.9963 146.061 31.6763 146.401 31.4363 146.825C31.1963 147.249 31.0243 147.737 30.9203 148.289C30.8243 148.833 30.7763 149.397 30.7763 149.981C30.7763 150.429 30.8083 150.893 30.8723 151.373C30.9443 151.853 31.0843 152.293 31.2923 152.693C31.5003 153.093 31.7963 153.421 32.1803 153.677C32.5643 153.933 33.0723 154.061 33.7043 154.061C34.2403 154.061 34.6883 153.973 35.0483 153.797C35.4163 153.613 35.7083 153.385 35.9243 153.113C36.1483 152.833 36.3083 152.525 36.4043 152.189C36.5003 151.853 36.5483 151.529 36.5483 151.217C36.5483 150.825 36.4883 150.461 36.3683 150.125C36.2483 149.789 36.0763 149.497 35.8523 149.249C35.6363 149.001 35.3643 148.809 35.0363 148.673C34.7163 148.529 34.3523 148.457 33.9443 148.457C33.4803 148.457 33.0683 148.545 32.7083 148.721C32.3563 148.897 32.0603 149.181 31.8203 149.573L31.7963 149.549C31.8043 149.221 31.8363 148.869 31.8923 148.493C31.9483 148.117 32.0483 147.769 32.1923 147.449C32.3443 147.121 32.5523 146.853 32.8163 146.645C33.0803 146.429 33.4283 146.321 33.8603 146.321C34.2683 146.321 34.5963 146.437 34.8443 146.669C35.0923 146.901 35.2403 147.209 35.2883 147.593ZM33.7523 149.357C34.0403 149.357 34.2923 149.409 34.5083 149.513C34.7243 149.617 34.9043 149.757 35.0483 149.933C35.1923 150.101 35.2963 150.305 35.3603 150.545C35.4323 150.777 35.4683 151.025 35.4683 151.289C35.4683 151.537 35.4283 151.777 35.3483 152.009C35.2763 152.233 35.1683 152.433 35.0243 152.609C34.8803 152.785 34.7003 152.925 34.4843 153.029C34.2763 153.125 34.0323 153.173 33.7523 153.173C33.4723 153.173 33.2203 153.125 32.9963 153.029C32.7803 152.925 32.5963 152.789 32.4443 152.621C32.3003 152.453 32.1883 152.253 32.1083 152.021C32.0283 151.789 31.9883 151.541 31.9883 151.277C31.9883 151.013 32.0243 150.765 32.0963 150.533C32.1763 150.293 32.2923 150.089 32.4443 149.921C32.5963 149.745 32.7803 149.609 32.9963 149.513C33.2123 149.409 33.4643 149.357 33.7523 149.357ZM38.5723 149.741C38.5723 149.533 38.5723 149.305 38.5723 149.057C38.5803 148.801 38.6003 148.549 38.6323 148.301C38.6723 148.045 38.7243 147.797 38.7883 147.557C38.8603 147.317 38.9603 147.109 39.0883 146.933C39.2243 146.749 39.3923 146.601 39.5923 146.489C39.7923 146.377 40.0363 146.321 40.3243 146.321C40.6123 146.321 40.8563 146.377 41.0563 146.489C41.2563 146.601 41.4203 146.749 41.5483 146.933C41.6843 147.109 41.7843 147.317 41.8483 147.557C41.9203 147.797 41.9723 148.045 42.0043 148.301C42.0443 148.549 42.0643 148.801 42.0643 149.057C42.0723 149.305 42.0763 149.533 42.0763 149.741C42.0763 150.061 42.0643 150.421 42.0403 150.821C42.0243 151.213 41.9603 151.585 41.8483 151.937C41.7443 152.281 41.5723 152.573 41.3323 152.813C41.0923 153.053 40.7563 153.173 40.3243 153.173C39.8923 153.173 39.5563 153.053 39.3163 152.813C39.0763 152.573 38.9003 152.281 38.7883 151.937C38.6843 151.585 38.6203 151.213 38.5963 150.821C38.5803 150.421 38.5723 150.061 38.5723 149.741ZM37.4923 149.753C37.4923 150.065 37.5003 150.389 37.5163 150.725C37.5323 151.061 37.5723 151.389 37.6363 151.709C37.7003 152.029 37.7923 152.333 37.9123 152.621C38.0323 152.901 38.1963 153.149 38.4043 153.365C38.6123 153.581 38.8723 153.753 39.1843 153.881C39.5043 154.001 39.8843 154.061 40.3243 154.061C40.7723 154.061 41.1523 154.001 41.4643 153.881C41.7763 153.753 42.0363 153.581 42.2443 153.365C42.4523 153.149 42.6163 152.901 42.7363 152.621C42.8563 152.333 42.9483 152.029 43.0123 151.709C43.0763 151.389 43.1163 151.061 43.1323 150.725C43.1483 150.389 43.1563 150.065 43.1563 149.753C43.1563 149.441 43.1483 149.117 43.1323 148.781C43.1163 148.445 43.0763 148.117 43.0123 147.797C42.9483 147.477 42.8563 147.173 42.7363 146.885C42.6163 146.597 42.4523 146.345 42.2443 146.129C42.0363 145.913 41.7723 145.741 41.4523 145.613C41.1403 145.485 40.7643 145.421 40.3243 145.421C39.8843 145.421 39.5043 145.485 39.1843 145.613C38.8723 145.741 38.6123 145.913 38.4043 146.129C38.1963 146.345 38.0323 146.597 37.9123 146.885C37.7923 147.173 37.7003 147.477 37.6363 147.797C37.5723 148.117 37.5323 148.445 37.5163 148.781C37.5003 149.117 37.4923 149.441 37.4923 149.753ZM45.2402 149.741C45.2402 149.533 45.2402 149.305 45.2402 149.057C45.2483 148.801 45.2683 148.549 45.3003 148.301C45.3403 148.045 45.3923 147.797 45.4563 147.557C45.5283 147.317 45.6283 147.109 45.7563 146.933C45.8923 146.749 46.0603 146.601 46.2603 146.489C46.4603 146.377 46.7043 146.321 46.9923 146.321C47.2803 146.321 47.5243 146.377 47.7243 146.489C47.9243 146.601 48.0883 146.749 48.2163 146.933C48.3523 147.109 48.4523 147.317 48.5163 147.557C48.5883 147.797 48.6403 148.045 48.6723 148.301C48.7123 148.549 48.7323 148.801 48.7323 149.057C48.7403 149.305 48.7443 149.533 48.7443 149.741C48.7443 150.061 48.7323 150.421 48.7083 150.821C48.6923 151.213 48.6283 151.585 48.5163 151.937C48.4123 152.281 48.2403 152.573 48.0003 152.813C47.7603 153.053 47.4243 153.173 46.9923 153.173C46.5603 153.173 46.2243 153.053 45.9843 152.813C45.7443 152.573 45.5683 152.281 45.4563 151.937C45.3523 151.585 45.2883 151.213 45.2643 150.821C45.2483 150.421 45.2402 150.061 45.2402 149.741ZM44.1603 149.753C44.1603 150.065 44.1683 150.389 44.1843 150.725C44.2003 151.061 44.2403 151.389 44.3043 151.709C44.3683 152.029 44.4603 152.333 44.5803 152.621C44.7003 152.901 44.8643 153.149 45.0723 153.365C45.2803 153.581 45.5403 153.753 45.8523 153.881C46.1723 154.001 46.5523 154.061 46.9923 154.061C47.4403 154.061 47.8203 154.001 48.1323 153.881C48.4443 153.753 48.7043 153.581 48.9123 153.365C49.1203 153.149 49.2843 152.901 49.4043 152.621C49.5243 152.333 49.6163 152.029 49.6803 151.709C49.7443 151.389 49.7843 151.061 49.8003 150.725C49.8163 150.389 49.8242 150.065 49.8242 149.753C49.8242 149.441 49.8163 149.117 49.8003 148.781C49.7843 148.445 49.7443 148.117 49.6803 147.797C49.6163 147.477 49.5243 147.173 49.4043 146.885C49.2843 146.597 49.1203 146.345 48.9123 146.129C48.7043 145.913 48.4403 145.741 48.1203 145.613C47.8083 145.485 47.4323 145.421 46.9923 145.421C46.5523 145.421 46.1723 145.485 45.8523 145.613C45.5403 145.741 45.2803 145.913 45.0723 146.129C44.8643 146.345 44.7003 146.597 44.5803 146.885C44.4603 147.173 44.3683 147.477 44.3043 147.797C44.2403 148.117 44.2003 148.445 44.1843 148.781C44.1683 149.117 44.1603 149.441 44.1603 149.753ZM51.3202 152.597V153.929H52.6522V152.597H51.3202ZM55.2481 149.741C55.2481 149.533 55.2481 149.305 55.2481 149.057C55.2561 148.801 55.2761 148.549 55.3081 148.301C55.3481 148.045 55.4001 147.797 55.4641 147.557C55.5361 147.317 55.6361 147.109 55.7641 146.933C55.9001 146.749 56.0681 146.601 56.2681 146.489C56.4681 146.377 56.7121 146.321 57.0001 146.321C57.2881 146.321 57.5321 146.377 57.7321 146.489C57.9321 146.601 58.0961 146.749 58.2241 146.933C58.3601 147.109 58.4601 147.317 58.5241 147.557C58.5961 147.797 58.6481 148.045 58.6801 148.301C58.7201 148.549 58.7401 148.801 58.7401 149.057C58.7481 149.305 58.7521 149.533 58.7521 149.741C58.7521 150.061 58.7401 150.421 58.7161 150.821C58.7001 151.213 58.6361 151.585 58.5241 151.937C58.4201 152.281 58.2481 152.573 58.0081 152.813C57.7681 153.053 57.4321 153.173 57.0001 153.173C56.5681 153.173 56.2321 153.053 55.9921 152.813C55.7521 152.573 55.5761 152.281 55.4641 151.937C55.3601 151.585 55.2961 151.213 55.2721 150.821C55.2561 150.421 55.2481 150.061 55.2481 149.741ZM54.1681 149.753C54.1681 150.065 54.1761 150.389 54.1921 150.725C54.2081 151.061 54.2481 151.389 54.3121 151.709C54.3761 152.029 54.4681 152.333 54.5881 152.621C54.7081 152.901 54.8721 153.149 55.0801 153.365C55.2881 153.581 55.5481 153.753 55.8601 153.881C56.1801 154.001 56.5601 154.061 57.0001 154.061C57.4481 154.061 57.8281 154.001 58.1401 153.881C58.4521 153.753 58.7121 153.581 58.9201 153.365C59.1281 153.149 59.2921 152.901 59.4121 152.621C59.5321 152.333 59.6241 152.029 59.6881 151.709C59.7521 151.389 59.7921 151.061 59.8081 150.725C59.8241 150.389 59.8321 150.065 59.8321 149.753C59.8321 149.441 59.8241 149.117 59.8081 148.781C59.7921 148.445 59.7521 148.117 59.6881 147.797C59.6241 147.477 59.5321 147.173 59.4121 146.885C59.2921 146.597 59.1281 146.345 58.9201 146.129C58.7121 145.913 58.4481 145.741 58.1281 145.613C57.8161 145.485 57.4401 145.421 57.0001 145.421C56.5601 145.421 56.1801 145.485 55.8601 145.613C55.5481 145.741 55.2881 145.913 55.0801 146.129C54.8721 146.345 54.7081 146.597 54.5881 146.885C54.4681 147.173 54.3761 147.477 54.3121 147.797C54.2481 148.117 54.2081 148.445 54.1921 148.781C54.1761 149.117 54.1681 149.441 54.1681 149.753ZM61.916 149.741C61.916 149.533 61.916 149.305 61.916 149.057C61.924 148.801 61.944 148.549 61.976 148.301C62.016 148.045 62.068 147.797 62.132 147.557C62.204 147.317 62.304 147.109 62.432 146.933C62.568 146.749 62.736 146.601 62.936 146.489C63.136 146.377 63.38 146.321 63.668 146.321C63.956 146.321 64.2 146.377 64.4 146.489C64.6 146.601 64.764 146.749 64.892 146.933C65.028 147.109 65.128 147.317 65.192 147.557C65.264 147.797 65.316 148.045 65.348 148.301C65.388 148.549 65.408 148.801 65.408 149.057C65.416 149.305 65.42 149.533 65.42 149.741C65.42 150.061 65.408 150.421 65.384 150.821C65.368 151.213 65.304 151.585 65.192 151.937C65.088 152.281 64.916 152.573 64.676 152.813C64.436 153.053 64.1 153.173 63.668 153.173C63.236 153.173 62.9 153.053 62.66 152.813C62.42 152.573 62.244 152.281 62.132 151.937C62.028 151.585 61.964 151.213 61.94 150.821C61.924 150.421 61.916 150.061 61.916 149.741ZM60.836 149.753C60.836 150.065 60.844 150.389 60.86 150.725C60.876 151.061 60.916 151.389 60.98 151.709C61.044 152.029 61.136 152.333 61.256 152.621C61.376 152.901 61.54 153.149 61.748 153.365C61.956 153.581 62.216 153.753 62.528 153.881C62.848 154.001 63.228 154.061 63.668 154.061C64.116 154.061 64.496 154.001 64.808 153.881C65.12 153.753 65.38 153.581 65.588 153.365C65.796 153.149 65.96 152.901 66.08 152.621C66.2 152.333 66.292 152.029 66.356 151.709C66.42 151.389 66.46 151.061 66.476 150.725C66.492 150.389 66.5 150.065 66.5 149.753C66.5 149.441 66.492 149.117 66.476 148.781C66.46 148.445 66.42 148.117 66.356 147.797C66.292 147.477 66.2 147.173 66.08 146.885C65.96 146.597 65.796 146.345 65.588 146.129C65.38 145.913 65.116 145.741 64.796 145.613C64.484 145.485 64.108 145.421 63.668 145.421C63.228 145.421 62.848 145.485 62.528 145.613C62.216 145.741 61.956 145.913 61.748 146.129C61.54 146.345 61.376 146.597 61.256 146.885C61.136 147.173 61.044 147.477 60.98 147.797C60.916 148.117 60.876 148.445 60.86 148.781C60.844 149.117 60.836 149.441 60.836 149.753Z" fill="#86909C"/>
<path d="M75 149.929H696" stroke="#E5E6EB" stroke-dasharray="4 4"/>
<path d="M34.3883 197.926H31.5323L34.3643 193.762H34.3883V197.926ZM35.3483 197.926V192.31H34.5323L30.6563 197.842V198.826H34.3883V200.818H35.3483V198.826H36.5003V197.926H35.3483ZM38.5723 196.63C38.5723 196.422 38.5723 196.194 38.5723 195.946C38.5803 195.69 38.6003 195.438 38.6323 195.19C38.6723 194.934 38.7243 194.686 38.7883 194.446C38.8603 194.206 38.9603 193.998 39.0883 193.822C39.2243 193.638 39.3923 193.49 39.5923 193.378C39.7923 193.266 40.0363 193.21 40.3243 193.21C40.6123 193.21 40.8563 193.266 41.0563 193.378C41.2563 193.49 41.4203 193.638 41.5483 193.822C41.6843 193.998 41.7843 194.206 41.8483 194.446C41.9203 194.686 41.9723 194.934 42.0043 195.19C42.0443 195.438 42.0643 195.69 42.0643 195.946C42.0723 196.194 42.0763 196.422 42.0763 196.63C42.0763 196.95 42.0643 197.31 42.0403 197.71C42.0243 198.102 41.9603 198.474 41.8483 198.826C41.7443 199.17 41.5723 199.462 41.3323 199.702C41.0923 199.942 40.7563 200.062 40.3243 200.062C39.8923 200.062 39.5563 199.942 39.3163 199.702C39.0763 199.462 38.9003 199.17 38.7883 198.826C38.6843 198.474 38.6203 198.102 38.5963 197.71C38.5803 197.31 38.5723 196.95 38.5723 196.63ZM37.4923 196.642C37.4923 196.954 37.5003 197.278 37.5163 197.614C37.5323 197.95 37.5723 198.278 37.6363 198.598C37.7003 198.918 37.7923 199.222 37.9123 199.51C38.0323 199.79 38.1963 200.038 38.4043 200.254C38.6123 200.47 38.8723 200.642 39.1843 200.77C39.5043 200.89 39.8843 200.95 40.3243 200.95C40.7723 200.95 41.1523 200.89 41.4643 200.77C41.7763 200.642 42.0363 200.47 42.2443 200.254C42.4523 200.038 42.6163 199.79 42.7363 199.51C42.8563 199.222 42.9483 198.918 43.0123 198.598C43.0763 198.278 43.1163 197.95 43.1323 197.614C43.1483 197.278 43.1563 196.954 43.1563 196.642C43.1563 196.33 43.1483 196.006 43.1323 195.67C43.1163 195.334 43.0763 195.006 43.0123 194.686C42.9483 194.366 42.8563 194.062 42.7363 193.774C42.6163 193.486 42.4523 193.234 42.2443 193.018C42.0363 192.802 41.7723 192.63 41.4523 192.502C41.1403 192.374 40.7643 192.31 40.3243 192.31C39.8843 192.31 39.5043 192.374 39.1843 192.502C38.8723 192.63 38.6123 192.802 38.4043 193.018C38.1963 193.234 38.0323 193.486 37.9123 193.774C37.7923 194.062 37.7003 194.366 37.6363 194.686C37.5723 195.006 37.5323 195.334 37.5163 195.67C37.5003 196.006 37.4923 196.33 37.4923 196.642ZM45.2402 196.63C45.2402 196.422 45.2402 196.194 45.2402 195.946C45.2483 195.69 45.2683 195.438 45.3003 195.19C45.3403 194.934 45.3923 194.686 45.4563 194.446C45.5283 194.206 45.6283 193.998 45.7563 193.822C45.8923 193.638 46.0603 193.49 46.2603 193.378C46.4603 193.266 46.7043 193.21 46.9923 193.21C47.2803 193.21 47.5243 193.266 47.7243 193.378C47.9243 193.49 48.0883 193.638 48.2163 193.822C48.3523 193.998 48.4523 194.206 48.5163 194.446C48.5883 194.686 48.6403 194.934 48.6723 195.19C48.7123 195.438 48.7323 195.69 48.7323 195.946C48.7403 196.194 48.7443 196.422 48.7443 196.63C48.7443 196.95 48.7323 197.31 48.7083 197.71C48.6923 198.102 48.6283 198.474 48.5163 198.826C48.4123 199.17 48.2403 199.462 48.0003 199.702C47.7603 199.942 47.4243 200.062 46.9923 200.062C46.5603 200.062 46.2243 199.942 45.9843 199.702C45.7443 199.462 45.5683 199.17 45.4563 198.826C45.3523 198.474 45.2883 198.102 45.2643 197.71C45.2483 197.31 45.2402 196.95 45.2402 196.63ZM44.1603 196.642C44.1603 196.954 44.1683 197.278 44.1843 197.614C44.2003 197.95 44.2403 198.278 44.3043 198.598C44.3683 198.918 44.4603 199.222 44.5803 199.51C44.7003 199.79 44.8643 200.038 45.0723 200.254C45.2803 200.47 45.5403 200.642 45.8523 200.77C46.1723 200.89 46.5523 200.95 46.9923 200.95C47.4403 200.95 47.8203 200.89 48.1323 200.77C48.4443 200.642 48.7043 200.47 48.9123 200.254C49.1203 200.038 49.2843 199.79 49.4043 199.51C49.5243 199.222 49.6163 198.918 49.6803 198.598C49.7443 198.278 49.7843 197.95 49.8003 197.614C49.8163 197.278 49.8242 196.954 49.8242 196.642C49.8242 196.33 49.8163 196.006 49.8003 195.67C49.7843 195.334 49.7443 195.006 49.6803 194.686C49.6163 194.366 49.5243 194.062 49.4043 193.774C49.2843 193.486 49.1203 193.234 48.9123 193.018C48.7043 192.802 48.4403 192.63 48.1203 192.502C47.8083 192.374 47.4323 192.31 46.9923 192.31C46.5523 192.31 46.1723 192.374 45.8523 192.502C45.5403 192.63 45.2803 192.802 45.0723 193.018C44.8643 193.234 44.7003 193.486 44.5803 193.774C44.4603 194.062 44.3683 194.366 44.3043 194.686C44.2403 195.006 44.2003 195.334 44.1843 195.67C44.1683 196.006 44.1603 196.33 44.1603 196.642ZM51.3202 199.486V200.818H52.6522V199.486H51.3202ZM55.2481 196.63C55.2481 196.422 55.2481 196.194 55.2481 195.946C55.2561 195.69 55.2761 195.438 55.3081 195.19C55.3481 194.934 55.4001 194.686 55.4641 194.446C55.5361 194.206 55.6361 193.998 55.7641 193.822C55.9001 193.638 56.0681 193.49 56.2681 193.378C56.4681 193.266 56.7121 193.21 57.0001 193.21C57.2881 193.21 57.5321 193.266 57.7321 193.378C57.9321 193.49 58.0961 193.638 58.2241 193.822C58.3601 193.998 58.4601 194.206 58.5241 194.446C58.5961 194.686 58.6481 194.934 58.6801 195.19C58.7201 195.438 58.7401 195.69 58.7401 195.946C58.7481 196.194 58.7521 196.422 58.7521 196.63C58.7521 196.95 58.7401 197.31 58.7161 197.71C58.7001 198.102 58.6361 198.474 58.5241 198.826C58.4201 199.17 58.2481 199.462 58.0081 199.702C57.7681 199.942 57.4321 200.062 57.0001 200.062C56.5681 200.062 56.2321 199.942 55.9921 199.702C55.7521 199.462 55.5761 199.17 55.4641 198.826C55.3601 198.474 55.2961 198.102 55.2721 197.71C55.2561 197.31 55.2481 196.95 55.2481 196.63ZM54.1681 196.642C54.1681 196.954 54.1761 197.278 54.1921 197.614C54.2081 197.95 54.2481 198.278 54.3121 198.598C54.3761 198.918 54.4681 199.222 54.5881 199.51C54.7081 199.79 54.8721 200.038 55.0801 200.254C55.2881 200.47 55.5481 200.642 55.8601 200.77C56.1801 200.89 56.5601 200.95 57.0001 200.95C57.4481 200.95 57.8281 200.89 58.1401 200.77C58.4521 200.642 58.7121 200.47 58.9201 200.254C59.1281 200.038 59.2921 199.79 59.4121 199.51C59.5321 199.222 59.6241 198.918 59.6881 198.598C59.7521 198.278 59.7921 197.95 59.8081 197.614C59.8241 197.278 59.8321 196.954 59.8321 196.642C59.8321 196.33 59.8241 196.006 59.8081 195.67C59.7921 195.334 59.7521 195.006 59.6881 194.686C59.6241 194.366 59.5321 194.062 59.4121 193.774C59.2921 193.486 59.1281 193.234 58.9201 193.018C58.7121 192.802 58.4481 192.63 58.1281 192.502C57.8161 192.374 57.4401 192.31 57.0001 192.31C56.5601 192.31 56.1801 192.374 55.8601 192.502C55.5481 192.63 55.2881 192.802 55.0801 193.018C54.8721 193.234 54.7081 193.486 54.5881 193.774C54.4681 194.062 54.3761 194.366 54.3121 194.686C54.2481 195.006 54.2081 195.334 54.1921 195.67C54.1761 196.006 54.1681 196.33 54.1681 196.642ZM61.916 196.63C61.916 196.422 61.916 196.194 61.916 195.946C61.924 195.69 61.944 195.438 61.976 195.19C62.016 194.934 62.068 194.686 62.132 194.446C62.204 194.206 62.304 193.998 62.432 193.822C62.568 193.638 62.736 193.49 62.936 193.378C63.136 193.266 63.38 193.21 63.668 193.21C63.956 193.21 64.2 193.266 64.4 193.378C64.6 193.49 64.764 193.638 64.892 193.822C65.028 193.998 65.128 194.206 65.192 194.446C65.264 194.686 65.316 194.934 65.348 195.19C65.388 195.438 65.408 195.69 65.408 195.946C65.416 196.194 65.42 196.422 65.42 196.63C65.42 196.95 65.408 197.31 65.384 197.71C65.368 198.102 65.304 198.474 65.192 198.826C65.088 199.17 64.916 199.462 64.676 199.702C64.436 199.942 64.1 200.062 63.668 200.062C63.236 200.062 62.9 199.942 62.66 199.702C62.42 199.462 62.244 199.17 62.132 198.826C62.028 198.474 61.964 198.102 61.94 197.71C61.924 197.31 61.916 196.95 61.916 196.63ZM60.836 196.642C60.836 196.954 60.844 197.278 60.86 197.614C60.876 197.95 60.916 198.278 60.98 198.598C61.044 198.918 61.136 199.222 61.256 199.51C61.376 199.79 61.54 200.038 61.748 200.254C61.956 200.47 62.216 200.642 62.528 200.77C62.848 200.89 63.228 200.95 63.668 200.95C64.116 200.95 64.496 200.89 64.808 200.77C65.12 200.642 65.38 200.47 65.588 200.254C65.796 200.038 65.96 199.79 66.08 199.51C66.2 199.222 66.292 198.918 66.356 198.598C66.42 198.278 66.46 197.95 66.476 197.614C66.492 197.278 66.5 196.954 66.5 196.642C66.5 196.33 66.492 196.006 66.476 195.67C66.46 195.334 66.42 195.006 66.356 194.686C66.292 194.366 66.2 194.062 66.08 193.774C65.96 193.486 65.796 193.234 65.588 193.018C65.38 192.802 65.116 192.63 64.796 192.502C64.484 192.374 64.108 192.31 63.668 192.31C63.228 192.31 62.848 192.374 62.528 192.502C62.216 192.63 61.956 192.802 61.748 193.018C61.54 193.234 61.376 193.486 61.256 193.774C61.136 194.062 61.044 194.366 60.98 194.686C60.916 195.006 60.876 195.334 60.86 195.67C60.844 196.006 60.836 196.33 60.836 196.642Z" fill="#86909C"/>
<path d="M75 196.818H696" stroke="#E5E6EB" stroke-dasharray="4 4"/>
<path d="M30.8483 242.214H31.8683C31.8603 241.958 31.8843 241.706 31.9403 241.458C32.0043 241.202 32.1043 240.974 32.2403 240.774C32.3763 240.574 32.5483 240.414 32.7563 240.294C32.9723 240.166 33.2283 240.102 33.5243 240.102C33.7483 240.102 33.9603 240.138 34.1603 240.21C34.3603 240.282 34.5323 240.386 34.6763 240.522C34.8283 240.658 34.9483 240.822 35.0363 241.014C35.1243 241.198 35.1683 241.406 35.1683 241.638C35.1683 241.934 35.1203 242.194 35.0243 242.418C34.9363 242.642 34.8003 242.85 34.6163 243.042C34.4403 243.234 34.2163 243.426 33.9443 243.618C33.6723 243.802 33.3563 244.006 32.9963 244.23C32.7003 244.406 32.4163 244.594 32.1443 244.794C31.8723 244.994 31.6283 245.226 31.4123 245.49C31.1963 245.754 31.0163 246.066 30.8723 246.426C30.7363 246.778 30.6483 247.206 30.6083 247.71H36.1643V246.81H31.7963C31.8443 246.546 31.9443 246.314 32.0963 246.114C32.2563 245.906 32.4443 245.714 32.6603 245.538C32.8843 245.362 33.1283 245.198 33.3923 245.046C33.6563 244.886 33.9203 244.726 34.1843 244.566C34.4483 244.398 34.7043 244.222 34.9523 244.038C35.2003 243.854 35.4203 243.65 35.6123 243.426C35.8043 243.194 35.9563 242.934 36.0683 242.646C36.1883 242.358 36.2483 242.026 36.2483 241.65C36.2483 241.25 36.1763 240.898 36.0323 240.594C35.8963 240.29 35.7083 240.038 35.4683 239.838C35.2283 239.63 34.9443 239.474 34.6163 239.37C34.2963 239.258 33.9523 239.202 33.5843 239.202C33.1363 239.202 32.7363 239.278 32.3843 239.43C32.0323 239.582 31.7363 239.794 31.4963 240.066C31.2643 240.33 31.0923 240.646 30.9803 241.014C30.8683 241.382 30.8243 241.782 30.8483 242.214ZM38.5723 243.522C38.5723 243.314 38.5723 243.086 38.5723 242.838C38.5803 242.582 38.6003 242.33 38.6323 242.082C38.6723 241.826 38.7243 241.578 38.7883 241.338C38.8603 241.098 38.9603 240.89 39.0883 240.714C39.2243 240.53 39.3923 240.382 39.5923 240.27C39.7923 240.158 40.0363 240.102 40.3243 240.102C40.6123 240.102 40.8563 240.158 41.0563 240.27C41.2563 240.382 41.4203 240.53 41.5483 240.714C41.6843 240.89 41.7843 241.098 41.8483 241.338C41.9203 241.578 41.9723 241.826 42.0043 242.082C42.0443 242.33 42.0643 242.582 42.0643 242.838C42.0723 243.086 42.0763 243.314 42.0763 243.522C42.0763 243.842 42.0643 244.202 42.0403 244.602C42.0243 244.994 41.9603 245.366 41.8483 245.718C41.7443 246.062 41.5723 246.354 41.3323 246.594C41.0923 246.834 40.7563 246.954 40.3243 246.954C39.8923 246.954 39.5563 246.834 39.3163 246.594C39.0763 246.354 38.9003 246.062 38.7883 245.718C38.6843 245.366 38.6203 244.994 38.5963 244.602C38.5803 244.202 38.5723 243.842 38.5723 243.522ZM37.4923 243.534C37.4923 243.846 37.5003 244.17 37.5163 244.506C37.5323 244.842 37.5723 245.17 37.6363 245.49C37.7003 245.81 37.7923 246.114 37.9123 246.402C38.0323 246.682 38.1963 246.93 38.4043 247.146C38.6123 247.362 38.8723 247.534 39.1843 247.662C39.5043 247.782 39.8843 247.842 40.3243 247.842C40.7723 247.842 41.1523 247.782 41.4643 247.662C41.7763 247.534 42.0363 247.362 42.2443 247.146C42.4523 246.93 42.6163 246.682 42.7363 246.402C42.8563 246.114 42.9483 245.81 43.0123 245.49C43.0763 245.17 43.1163 244.842 43.1323 244.506C43.1483 244.17 43.1563 243.846 43.1563 243.534C43.1563 243.222 43.1483 242.898 43.1323 242.562C43.1163 242.226 43.0763 241.898 43.0123 241.578C42.9483 241.258 42.8563 240.954 42.7363 240.666C42.6163 240.378 42.4523 240.126 42.2443 239.91C42.0363 239.694 41.7723 239.522 41.4523 239.394C41.1403 239.266 40.7643 239.202 40.3243 239.202C39.8843 239.202 39.5043 239.266 39.1843 239.394C38.8723 239.522 38.6123 239.694 38.4043 239.91C38.1963 240.126 38.0323 240.378 37.9123 240.666C37.7923 240.954 37.7003 241.258 37.6363 241.578C37.5723 241.898 37.5323 242.226 37.5163 242.562C37.5003 242.898 37.4923 243.222 37.4923 243.534ZM45.2402 243.522C45.2402 243.314 45.2402 243.086 45.2402 242.838C45.2483 242.582 45.2683 242.33 45.3003 242.082C45.3403 241.826 45.3923 241.578 45.4563 241.338C45.5283 241.098 45.6283 240.89 45.7563 240.714C45.8923 240.53 46.0603 240.382 46.2603 240.27C46.4603 240.158 46.7043 240.102 46.9923 240.102C47.2803 240.102 47.5243 240.158 47.7243 240.27C47.9243 240.382 48.0883 240.53 48.2163 240.714C48.3523 240.89 48.4523 241.098 48.5163 241.338C48.5883 241.578 48.6403 241.826 48.6723 242.082C48.7123 242.33 48.7323 242.582 48.7323 242.838C48.7403 243.086 48.7443 243.314 48.7443 243.522C48.7443 243.842 48.7323 244.202 48.7083 244.602C48.6923 244.994 48.6283 245.366 48.5163 245.718C48.4123 246.062 48.2403 246.354 48.0003 246.594C47.7603 246.834 47.4243 246.954 46.9923 246.954C46.5603 246.954 46.2243 246.834 45.9843 246.594C45.7443 246.354 45.5683 246.062 45.4563 245.718C45.3523 245.366 45.2883 244.994 45.2643 244.602C45.2483 244.202 45.2402 243.842 45.2402 243.522ZM44.1603 243.534C44.1603 243.846 44.1683 244.17 44.1843 244.506C44.2003 244.842 44.2403 245.17 44.3043 245.49C44.3683 245.81 44.4603 246.114 44.5803 246.402C44.7003 246.682 44.8643 246.93 45.0723 247.146C45.2803 247.362 45.5403 247.534 45.8523 247.662C46.1723 247.782 46.5523 247.842 46.9923 247.842C47.4403 247.842 47.8203 247.782 48.1323 247.662C48.4443 247.534 48.7043 247.362 48.9123 247.146C49.1203 246.93 49.2843 246.682 49.4043 246.402C49.5243 246.114 49.6163 245.81 49.6803 245.49C49.7443 245.17 49.7843 244.842 49.8003 244.506C49.8163 244.17 49.8242 243.846 49.8242 243.534C49.8242 243.222 49.8163 242.898 49.8003 242.562C49.7843 242.226 49.7443 241.898 49.6803 241.578C49.6163 241.258 49.5243 240.954 49.4043 240.666C49.2843 240.378 49.1203 240.126 48.9123 239.91C48.7043 239.694 48.4403 239.522 48.1203 239.394C47.8083 239.266 47.4323 239.202 46.9923 239.202C46.5523 239.202 46.1723 239.266 45.8523 239.394C45.5403 239.522 45.2803 239.694 45.0723 239.91C44.8643 240.126 44.7003 240.378 44.5803 240.666C44.4603 240.954 44.3683 241.258 44.3043 241.578C44.2403 241.898 44.2003 242.226 44.1843 242.562C44.1683 242.898 44.1603 243.222 44.1603 243.534ZM51.3202 246.378V247.71H52.6522V246.378H51.3202ZM55.2481 243.522C55.2481 243.314 55.2481 243.086 55.2481 242.838C55.2561 242.582 55.2761 242.33 55.3081 242.082C55.3481 241.826 55.4001 241.578 55.4641 241.338C55.5361 241.098 55.6361 240.89 55.7641 240.714C55.9001 240.53 56.0681 240.382 56.2681 240.27C56.4681 240.158 56.7121 240.102 57.0001 240.102C57.2881 240.102 57.5321 240.158 57.7321 240.27C57.9321 240.382 58.0961 240.53 58.2241 240.714C58.3601 240.89 58.4601 241.098 58.5241 241.338C58.5961 241.578 58.6481 241.826 58.6801 242.082C58.7201 242.33 58.7401 242.582 58.7401 242.838C58.7481 243.086 58.7521 243.314 58.7521 243.522C58.7521 243.842 58.7401 244.202 58.7161 244.602C58.7001 244.994 58.6361 245.366 58.5241 245.718C58.4201 246.062 58.2481 246.354 58.0081 246.594C57.7681 246.834 57.4321 246.954 57.0001 246.954C56.5681 246.954 56.2321 246.834 55.9921 246.594C55.7521 246.354 55.5761 246.062 55.4641 245.718C55.3601 245.366 55.2961 244.994 55.2721 244.602C55.2561 244.202 55.2481 243.842 55.2481 243.522ZM54.1681 243.534C54.1681 243.846 54.1761 244.17 54.1921 244.506C54.2081 244.842 54.2481 245.17 54.3121 245.49C54.3761 245.81 54.4681 246.114 54.5881 246.402C54.7081 246.682 54.8721 246.93 55.0801 247.146C55.2881 247.362 55.5481 247.534 55.8601 247.662C56.1801 247.782 56.5601 247.842 57.0001 247.842C57.4481 247.842 57.8281 247.782 58.1401 247.662C58.4521 247.534 58.7121 247.362 58.9201 247.146C59.1281 246.93 59.2921 246.682 59.4121 246.402C59.5321 246.114 59.6241 245.81 59.6881 245.49C59.7521 245.17 59.7921 244.842 59.8081 244.506C59.8241 244.17 59.8321 243.846 59.8321 243.534C59.8321 243.222 59.8241 242.898 59.8081 242.562C59.7921 242.226 59.7521 241.898 59.6881 241.578C59.6241 241.258 59.5321 240.954 59.4121 240.666C59.2921 240.378 59.1281 240.126 58.9201 239.91C58.7121 239.694 58.4481 239.522 58.1281 239.394C57.8161 239.266 57.4401 239.202 57.0001 239.202C56.5601 239.202 56.1801 239.266 55.8601 239.394C55.5481 239.522 55.2881 239.694 55.0801 239.91C54.8721 240.126 54.7081 240.378 54.5881 240.666C54.4681 240.954 54.3761 241.258 54.3121 241.578C54.2481 241.898 54.2081 242.226 54.1921 242.562C54.1761 242.898 54.1681 243.222 54.1681 243.534ZM61.916 243.522C61.916 243.314 61.916 243.086 61.916 242.838C61.924 242.582 61.944 242.33 61.976 242.082C62.016 241.826 62.068 241.578 62.132 241.338C62.204 241.098 62.304 240.89 62.432 240.714C62.568 240.53 62.736 240.382 62.936 240.27C63.136 240.158 63.38 240.102 63.668 240.102C63.956 240.102 64.2 240.158 64.4 240.27C64.6 240.382 64.764 240.53 64.892 240.714C65.028 240.89 65.128 241.098 65.192 241.338C65.264 241.578 65.316 241.826 65.348 242.082C65.388 242.33 65.408 242.582 65.408 242.838C65.416 243.086 65.42 243.314 65.42 243.522C65.42 243.842 65.408 244.202 65.384 244.602C65.368 244.994 65.304 245.366 65.192 245.718C65.088 246.062 64.916 246.354 64.676 246.594C64.436 246.834 64.1 246.954 63.668 246.954C63.236 246.954 62.9 246.834 62.66 246.594C62.42 246.354 62.244 246.062 62.132 245.718C62.028 245.366 61.964 244.994 61.94 244.602C61.924 244.202 61.916 243.842 61.916 243.522ZM60.836 243.534C60.836 243.846 60.844 244.17 60.86 244.506C60.876 244.842 60.916 245.17 60.98 245.49C61.044 245.81 61.136 246.114 61.256 246.402C61.376 246.682 61.54 246.93 61.748 247.146C61.956 247.362 62.216 247.534 62.528 247.662C62.848 247.782 63.228 247.842 63.668 247.842C64.116 247.842 64.496 247.782 64.808 247.662C65.12 247.534 65.38 247.362 65.588 247.146C65.796 246.93 65.96 246.682 66.08 246.402C66.2 246.114 66.292 245.81 66.356 245.49C66.42 245.17 66.46 244.842 66.476 244.506C66.492 244.17 66.5 243.846 66.5 243.534C66.5 243.222 66.492 242.898 66.476 242.562C66.46 242.226 66.42 241.898 66.356 241.578C66.292 241.258 66.2 240.954 66.08 240.666C65.96 240.378 65.796 240.126 65.588 239.91C65.38 239.694 65.116 239.522 64.796 239.394C64.484 239.266 64.108 239.202 63.668 239.202C63.228 239.202 62.848 239.266 62.528 239.394C62.216 239.522 61.956 239.694 61.748 239.91C61.54 240.126 61.376 240.378 61.256 240.666C61.136 240.954 61.044 241.258 60.98 241.578C60.916 241.898 60.876 242.226 60.86 242.562C60.844 242.898 60.836 243.222 60.836 243.534Z" fill="#86909C"/>
<path d="M75 243.71H696" stroke="#E5E6EB" stroke-dasharray="4 4"/>
<path d="M61.916 290.411C61.916 290.203 61.916 289.975 61.916 289.727C61.924 289.471 61.944 289.219 61.976 288.971C62.016 288.715 62.068 288.467 62.132 288.227C62.204 287.987 62.304 287.779 62.432 287.603C62.568 287.419 62.736 287.271 62.936 287.159C63.136 287.047 63.38 286.991 63.668 286.991C63.956 286.991 64.2 287.047 64.4 287.159C64.6 287.271 64.764 287.419 64.892 287.603C65.028 287.779 65.128 287.987 65.192 288.227C65.264 288.467 65.316 288.715 65.348 288.971C65.388 289.219 65.408 289.471 65.408 289.727C65.416 289.975 65.42 290.203 65.42 290.411C65.42 290.731 65.408 291.091 65.384 291.491C65.368 291.883 65.304 292.255 65.192 292.607C65.088 292.951 64.916 293.243 64.676 293.483C64.436 293.723 64.1 293.843 63.668 293.843C63.236 293.843 62.9 293.723 62.66 293.483C62.42 293.243 62.244 292.951 62.132 292.607C62.028 292.255 61.964 291.883 61.94 291.491C61.924 291.091 61.916 290.731 61.916 290.411ZM60.836 290.423C60.836 290.735 60.844 291.059 60.86 291.395C60.876 291.731 60.916 292.059 60.98 292.379C61.044 292.699 61.136 293.003 61.256 293.291C61.376 293.571 61.54 293.819 61.748 294.035C61.956 294.251 62.216 294.423 62.528 294.551C62.848 294.671 63.228 294.731 63.668 294.731C64.116 294.731 64.496 294.671 64.808 294.551C65.12 294.423 65.38 294.251 65.588 294.035C65.796 293.819 65.96 293.571 66.08 293.291C66.2 293.003 66.292 292.699 66.356 292.379C66.42 292.059 66.46 291.731 66.476 291.395C66.492 291.059 66.5 290.735 66.5 290.423C66.5 290.111 66.492 289.787 66.476 289.451C66.46 289.115 66.42 288.787 66.356 288.467C66.292 288.147 66.2 287.843 66.08 287.555C65.96 287.267 65.796 287.015 65.588 286.799C65.38 286.583 65.116 286.411 64.796 286.283C64.484 286.155 64.108 286.091 63.668 286.091C63.228 286.091 62.848 286.155 62.528 286.283C62.216 286.411 61.956 286.583 61.748 286.799C61.54 287.015 61.376 287.267 61.256 287.555C61.136 287.843 61.044 288.147 60.98 288.467C60.916 288.787 60.876 289.115 60.86 289.451C60.844 289.787 60.836 290.111 60.836 290.423Z" fill="#86909C"/>
<path d="M75 290.599H696" stroke="#C9CDD4"/>
<path d="M39.4396 33.769V25.0417H42.3885C43.0732 25.0417 43.6328 25.1653 44.0675 25.4124C44.505 25.6568 44.8288 25.9877 45.0391 26.4053C45.2493 26.8229 45.3544 27.2889 45.3544 27.8031C45.3544 28.3173 45.2493 28.7846 45.0391 29.205C44.8317 29.6255 44.5107 29.9607 44.076 30.2107C43.6413 30.4579 43.0845 30.5815 42.4055 30.5815H40.2919V29.644H42.3714C42.8402 29.644 43.2166 29.563 43.5007 29.4011C43.7848 29.2391 43.9908 29.0204 44.1186 28.7448C44.2493 28.4664 44.3146 28.1525 44.3146 27.8031C44.3146 27.4536 44.2493 27.1411 44.1186 26.8656C43.9908 26.59 43.7834 26.3741 43.4964 26.2178C43.2095 26.0587 42.8288 25.9792 42.3544 25.9792H40.4964V33.769H39.4396ZM46.9205 33.769V27.2235H47.892V28.2121H47.9602C48.0795 27.8883 48.2955 27.6255 48.608 27.4238C48.9205 27.2221 49.2727 27.1212 49.6648 27.1212C49.7386 27.1212 49.831 27.1227 49.9418 27.1255C50.0526 27.1283 50.1364 27.1326 50.1932 27.1383V28.161C50.1591 28.1525 50.081 28.1397 49.9588 28.1227C49.8395 28.1028 49.7131 28.0928 49.5795 28.0928C49.2614 28.0928 48.9773 28.1596 48.7273 28.2931C48.4801 28.4238 48.2841 28.6056 48.1392 28.8386C47.9972 29.0687 47.9261 29.3315 47.9261 29.6269V33.769H46.9205ZM51.3853 33.769V27.2235H52.391V33.769H51.3853ZM51.8967 26.1326C51.7006 26.1326 51.5316 26.0658 51.3896 25.9323C51.2504 25.7988 51.1808 25.6383 51.1808 25.4508C51.1808 25.2633 51.2504 25.1028 51.3896 24.9693C51.5316 24.8357 51.7006 24.769 51.8967 24.769C52.0927 24.769 52.2603 24.8357 52.3995 24.9693C52.5415 25.1028 52.6126 25.2633 52.6126 25.4508C52.6126 25.6383 52.5415 25.7988 52.3995 25.9323C52.2603 26.0658 52.0927 26.1326 51.8967 26.1326ZM56.892 33.9053C56.2784 33.9053 55.75 33.7604 55.3068 33.4707C54.8636 33.1809 54.5227 32.7818 54.2841 32.2732C54.0455 31.7647 53.9261 31.1837 53.9261 30.5303C53.9261 29.8656 54.0483 29.2789 54.2926 28.7704C54.5398 28.259 54.8835 27.8599 55.3239 27.5729C55.767 27.2832 56.2841 27.1383 56.875 27.1383C57.3352 27.1383 57.75 27.2235 58.1193 27.394C58.4886 27.5644 58.7912 27.8031 59.027 28.1099C59.2628 28.4167 59.4091 28.7746 59.4659 29.1837H58.4602C58.3835 28.8854 58.2131 28.6212 57.9489 28.3911C57.6875 28.1582 57.3352 28.0417 56.892 28.0417C56.5 28.0417 56.1563 28.144 55.8608 28.3485C55.5682 28.5502 55.3395 28.8357 55.1747 29.205C55.0128 29.5715 54.9318 30.0019 54.9318 30.4962C54.9318 31.0019 55.0114 31.4423 55.1705 31.8173C55.3324 32.1923 55.5597 32.4835 55.8523 32.6908C56.1477 32.8982 56.4943 33.0019 56.892 33.0019C57.1534 33.0019 57.3906 32.9565 57.6037 32.8656C57.8168 32.7746 57.9972 32.644 58.1449 32.4735C58.2926 32.3031 58.3977 32.0985 58.4602 31.8599H59.4659C59.4091 32.2462 59.2685 32.5943 59.044 32.9039C58.8224 33.2107 58.5284 33.455 58.1619 33.6369C57.7983 33.8158 57.375 33.9053 56.892 33.9053ZM63.6804 33.9053C63.0497 33.9053 62.5057 33.7661 62.0483 33.4877C61.5938 33.2065 61.2429 32.8144 60.9957 32.3116C60.7514 31.8059 60.6293 31.2178 60.6293 30.5474C60.6293 29.8769 60.7514 29.286 60.9957 28.7746C61.2429 28.2604 61.5866 27.8599 62.027 27.5729C62.4702 27.2832 62.9872 27.1383 63.5781 27.1383C63.919 27.1383 64.2557 27.1951 64.5881 27.3087C64.9205 27.4224 65.223 27.607 65.4957 27.8627C65.7685 28.1156 65.9858 28.4508 66.1477 28.8684C66.3097 29.286 66.3906 29.8002 66.3906 30.411V30.8371H61.3452V29.9678H65.3679C65.3679 29.5985 65.294 29.269 65.1463 28.9792C65.0014 28.6894 64.794 28.4607 64.5241 28.2931C64.2571 28.1255 63.9418 28.0417 63.5781 28.0417C63.1776 28.0417 62.831 28.1411 62.5384 28.34C62.2486 28.536 62.0256 28.7917 61.8693 29.107C61.7131 29.4224 61.6349 29.7604 61.6349 30.1212V30.7008C61.6349 31.1951 61.7202 31.6141 61.8906 31.9579C62.0639 32.2988 62.304 32.5587 62.6108 32.7377C62.9176 32.9139 63.2741 33.0019 63.6804 33.0019C63.9446 33.0019 64.1832 32.965 64.3963 32.8911C64.6122 32.8144 64.7983 32.7008 64.9545 32.5502C65.1108 32.3968 65.2315 32.2065 65.3168 31.9792L66.2884 32.2519C66.1861 32.5815 66.0142 32.8712 65.7727 33.1212C65.5313 33.3684 65.233 33.5616 64.8778 33.7008C64.5227 33.8371 64.1236 33.9053 63.6804 33.9053Z" fill="white"/>
<path d="M111.288 310.231V301.723H110.508C110.452 302.043 110.348 302.307 110.196 302.515C110.044 302.723 109.856 302.887 109.632 303.007C109.416 303.127 109.172 303.211 108.9 303.259C108.628 303.299 108.348 303.319 108.06 303.319V304.135H110.268V310.231H111.288Z" fill="#86909C"/>
<path d="M158.47 304.735H159.49C159.482 304.479 159.506 304.227 159.562 303.979C159.626 303.723 159.726 303.495 159.862 303.295C159.998 303.095 160.17 302.935 160.378 302.815C160.594 302.687 160.85 302.623 161.146 302.623C161.37 302.623 161.582 302.659 161.782 302.731C161.982 302.803 162.154 302.907 162.298 303.043C162.45 303.179 162.57 303.343 162.658 303.535C162.746 303.719 162.79 303.927 162.79 304.159C162.79 304.455 162.742 304.715 162.646 304.939C162.558 305.163 162.422 305.371 162.238 305.563C162.062 305.755 161.838 305.947 161.566 306.139C161.294 306.323 160.978 306.527 160.618 306.751C160.322 306.927 160.038 307.115 159.766 307.315C159.494 307.515 159.25 307.747 159.034 308.011C158.818 308.275 158.638 308.587 158.494 308.947C158.358 309.299 158.27 309.727 158.23 310.231H163.786V309.331H159.418C159.466 309.067 159.566 308.835 159.718 308.635C159.878 308.427 160.066 308.235 160.282 308.059C160.506 307.883 160.75 307.719 161.014 307.567C161.278 307.407 161.542 307.247 161.806 307.087C162.07 306.919 162.326 306.743 162.574 306.559C162.822 306.375 163.042 306.171 163.234 305.947C163.426 305.715 163.578 305.455 163.69 305.167C163.81 304.879 163.87 304.547 163.87 304.171C163.87 303.771 163.798 303.419 163.654 303.115C163.518 302.811 163.33 302.559 163.09 302.359C162.85 302.151 162.566 301.995 162.238 301.891C161.918 301.779 161.574 301.723 161.206 301.723C160.758 301.723 160.358 301.799 160.006 301.951C159.654 302.103 159.358 302.315 159.118 302.587C158.886 302.851 158.714 303.167 158.602 303.535C158.49 303.903 158.446 304.303 158.47 304.735Z" fill="#86909C"/>
<path d="M211.484 305.371V306.235C211.676 306.211 211.88 306.199 212.096 306.199C212.352 306.199 212.588 306.235 212.804 306.307C213.028 306.371 213.22 306.475 213.38 306.619C213.54 306.755 213.668 306.927 213.764 307.135C213.86 307.335 213.908 307.567 213.908 307.831C213.908 308.087 213.856 308.319 213.752 308.527C213.656 308.727 213.524 308.899 213.356 309.043C213.188 309.179 212.992 309.287 212.768 309.367C212.544 309.439 212.308 309.475 212.06 309.475C211.476 309.475 211.032 309.303 210.728 308.959C210.424 308.607 210.264 308.155 210.248 307.603H209.228C209.22 308.043 209.28 308.435 209.408 308.779C209.544 309.123 209.736 309.415 209.984 309.655C210.232 309.887 210.532 310.063 210.884 310.183C211.236 310.303 211.628 310.363 212.06 310.363C212.46 310.363 212.836 310.311 213.188 310.207C213.548 310.095 213.86 309.931 214.124 309.715C214.388 309.499 214.596 309.231 214.748 308.911C214.908 308.583 214.988 308.207 214.988 307.783C214.988 307.271 214.86 306.827 214.604 306.451C214.356 306.075 213.972 305.831 213.452 305.719V305.695C213.788 305.543 214.068 305.319 214.292 305.023C214.516 304.727 214.628 304.387 214.628 304.003C214.628 303.611 214.56 303.271 214.424 302.983C214.296 302.695 214.116 302.459 213.884 302.275C213.652 302.091 213.376 301.955 213.056 301.867C212.744 301.771 212.404 301.723 212.036 301.723C211.612 301.723 211.236 301.791 210.908 301.927C210.588 302.063 210.32 302.251 210.104 302.491C209.888 302.731 209.72 303.019 209.6 303.355C209.488 303.691 209.424 304.063 209.408 304.471H210.428C210.428 304.223 210.46 303.987 210.524 303.763C210.588 303.539 210.684 303.343 210.812 303.175C210.948 303.007 211.116 302.875 211.316 302.779C211.524 302.675 211.764 302.623 212.036 302.623C212.468 302.623 212.828 302.739 213.116 302.971C213.404 303.195 213.548 303.535 213.548 303.991C213.548 304.215 213.504 304.415 213.416 304.591C213.328 304.767 213.208 304.915 213.056 305.035C212.912 305.147 212.74 305.235 212.54 305.299C212.348 305.355 212.144 305.383 211.928 305.383H211.712C211.672 305.383 211.632 305.383 211.592 305.383C211.56 305.383 211.524 305.379 211.484 305.371Z" fill="#86909C"/>
<path d="M263.862 307.339H261.006L263.838 303.175H263.862V307.339ZM264.822 307.339V301.723H264.006L260.13 307.255V308.239H263.862V310.231H264.822V308.239H265.974V307.339H264.822Z" fill="#86909C"/>
<path d="M316.36 302.767V301.867H312.16L311.368 306.283L312.244 306.331C312.444 306.091 312.672 305.899 312.928 305.755C313.192 305.603 313.492 305.527 313.828 305.527C314.116 305.527 314.376 305.575 314.608 305.671C314.848 305.767 315.052 305.903 315.22 306.079C315.388 306.247 315.516 306.451 315.604 306.691C315.7 306.923 315.748 307.179 315.748 307.459C315.748 307.795 315.7 308.091 315.604 308.347C315.508 308.595 315.376 308.803 315.208 308.971C315.048 309.139 314.856 309.267 314.632 309.355C314.416 309.435 314.188 309.475 313.948 309.475C313.692 309.475 313.456 309.439 313.24 309.367C313.032 309.287 312.848 309.179 312.688 309.043C312.536 308.899 312.412 308.735 312.316 308.551C312.228 308.359 312.176 308.155 312.16 307.939H311.14C311.148 308.323 311.224 308.667 311.368 308.971C311.512 309.275 311.708 309.531 311.956 309.739C312.204 309.939 312.488 310.095 312.808 310.207C313.136 310.311 313.484 310.363 313.852 310.363C314.348 310.363 314.78 310.287 315.148 310.135C315.524 309.975 315.836 309.763 316.084 309.499C316.332 309.235 316.516 308.935 316.636 308.599C316.764 308.255 316.828 307.903 316.828 307.543C316.828 307.055 316.756 306.631 316.612 306.271C316.468 305.903 316.272 305.599 316.024 305.359C315.776 305.111 315.484 304.927 315.148 304.807C314.812 304.687 314.456 304.627 314.08 304.627C313.792 304.627 313.5 304.679 313.204 304.783C312.916 304.879 312.68 305.031 312.496 305.239L312.472 305.215L312.928 302.767H316.36Z" fill="#86909C"/>
<path d="M366.614 303.895H367.634C367.57 303.191 367.33 302.655 366.914 302.287C366.498 301.911 365.938 301.723 365.234 301.723C364.626 301.723 364.122 301.851 363.722 302.107C363.322 302.363 363.002 302.703 362.762 303.127C362.522 303.551 362.35 304.039 362.246 304.591C362.15 305.135 362.102 305.699 362.102 306.283C362.102 306.731 362.134 307.195 362.198 307.675C362.27 308.155 362.41 308.595 362.618 308.995C362.826 309.395 363.122 309.723 363.506 309.979C363.89 310.235 364.398 310.363 365.03 310.363C365.566 310.363 366.014 310.275 366.374 310.099C366.742 309.915 367.034 309.687 367.25 309.415C367.474 309.135 367.634 308.827 367.73 308.491C367.826 308.155 367.874 307.831 367.874 307.519C367.874 307.127 367.814 306.763 367.694 306.427C367.574 306.091 367.402 305.799 367.178 305.551C366.962 305.303 366.69 305.111 366.362 304.975C366.042 304.831 365.678 304.759 365.27 304.759C364.806 304.759 364.394 304.847 364.034 305.023C363.682 305.199 363.386 305.483 363.146 305.875L363.122 305.851C363.13 305.523 363.162 305.171 363.218 304.795C363.274 304.419 363.374 304.071 363.518 303.751C363.67 303.423 363.878 303.155 364.142 302.947C364.406 302.731 364.754 302.623 365.186 302.623C365.594 302.623 365.922 302.739 366.17 302.971C366.418 303.203 366.566 303.511 366.614 303.895ZM365.078 305.659C365.366 305.659 365.618 305.711 365.834 305.815C366.05 305.919 366.23 306.059 366.374 306.235C366.518 306.403 366.622 306.607 366.686 306.847C366.758 307.079 366.794 307.327 366.794 307.591C366.794 307.839 366.754 308.079 366.674 308.311C366.602 308.535 366.494 308.735 366.35 308.911C366.206 309.087 366.026 309.227 365.81 309.331C365.602 309.427 365.358 309.475 365.078 309.475C364.798 309.475 364.546 309.427 364.322 309.331C364.106 309.227 363.922 309.091 363.77 308.923C363.626 308.755 363.514 308.555 363.434 308.323C363.354 308.091 363.314 307.843 363.314 307.579C363.314 307.315 363.35 307.067 363.422 306.835C363.502 306.595 363.618 306.391 363.77 306.223C363.922 306.047 364.106 305.911 364.322 305.815C364.538 305.711 364.79 305.659 365.078 305.659Z" fill="#86909C"/>
<path d="M418.68 302.743V301.867H413.172V302.827H417.636C417.188 303.299 416.768 303.815 416.376 304.375C415.992 304.935 415.652 305.531 415.356 306.163C415.06 306.787 414.816 307.443 414.624 308.131C414.44 308.811 414.324 309.511 414.276 310.231H415.416C415.456 309.567 415.568 308.883 415.752 308.179C415.936 307.475 416.172 306.791 416.46 306.127C416.756 305.463 417.092 304.839 417.468 304.255C417.844 303.671 418.248 303.167 418.68 302.743Z" fill="#86909C"/>
<path d="M465.358 303.931C465.358 303.715 465.398 303.527 465.478 303.367C465.558 303.207 465.662 303.071 465.79 302.959C465.926 302.847 466.086 302.763 466.27 302.707C466.454 302.651 466.646 302.623 466.846 302.623C467.262 302.623 467.602 302.735 467.866 302.959C468.138 303.175 468.274 303.499 468.274 303.931C468.274 304.363 468.142 304.699 467.878 304.939C467.614 305.179 467.278 305.299 466.87 305.299C466.662 305.299 466.466 305.271 466.282 305.215C466.098 305.159 465.938 305.075 465.802 304.963C465.666 304.851 465.558 304.711 465.478 304.543C465.398 304.367 465.358 304.163 465.358 303.931ZM464.278 303.895C464.278 304.279 464.386 304.635 464.602 304.963C464.818 305.283 465.106 305.515 465.466 305.659C464.986 305.827 464.618 306.099 464.362 306.475C464.106 306.843 463.978 307.279 463.978 307.783C463.978 308.215 464.05 308.595 464.194 308.923C464.346 309.243 464.55 309.511 464.806 309.727C465.07 309.943 465.378 310.103 465.73 310.207C466.082 310.311 466.462 310.363 466.87 310.363C467.262 310.363 467.63 310.307 467.974 310.195C468.318 310.083 468.614 309.919 468.862 309.703C469.118 309.479 469.318 309.207 469.462 308.887C469.614 308.567 469.69 308.199 469.69 307.783C469.69 307.255 469.566 306.811 469.318 306.451C469.07 306.083 468.69 305.819 468.178 305.659C468.538 305.499 468.822 305.263 469.03 304.951C469.246 304.631 469.354 304.279 469.354 303.895C469.354 303.623 469.306 303.359 469.21 303.103C469.114 302.839 468.962 302.607 468.754 302.407C468.554 302.199 468.29 302.035 467.962 301.915C467.634 301.787 467.238 301.723 466.774 301.723C466.446 301.723 466.13 301.771 465.826 301.867C465.53 301.963 465.266 302.103 465.034 302.287C464.802 302.471 464.618 302.699 464.482 302.971C464.346 303.235 464.278 303.543 464.278 303.895ZM465.058 307.831C465.058 307.583 465.102 307.359 465.19 307.159C465.286 306.959 465.414 306.787 465.574 306.643C465.742 306.499 465.934 306.391 466.15 306.319C466.374 306.239 466.61 306.199 466.858 306.199C467.098 306.199 467.322 306.243 467.53 306.331C467.746 306.411 467.934 306.523 468.094 306.667C468.254 306.811 468.378 306.983 468.466 307.183C468.562 307.375 468.61 307.587 468.61 307.819C468.61 308.059 468.566 308.279 468.478 308.479C468.398 308.679 468.278 308.855 468.118 309.007C467.966 309.151 467.782 309.267 467.566 309.355C467.358 309.435 467.126 309.475 466.87 309.475C466.342 309.475 465.906 309.331 465.562 309.043C465.226 308.747 465.058 308.343 465.058 307.831Z" fill="#86909C"/>
<path d="M516.032 308.179H515.012C515.076 308.915 515.344 309.463 515.816 309.823C516.288 310.183 516.88 310.363 517.592 310.363C518.624 310.363 519.372 309.971 519.836 309.187C520.309 308.395 520.545 307.263 520.545 305.791C520.545 304.983 520.464 304.319 520.304 303.799C520.152 303.271 519.944 302.855 519.68 302.551C519.416 302.247 519.108 302.035 518.756 301.915C518.404 301.787 518.028 301.723 517.628 301.723C517.22 301.723 516.844 301.791 516.5 301.927C516.156 302.063 515.86 302.255 515.612 302.503C515.364 302.743 515.172 303.035 515.036 303.379C514.9 303.715 514.832 304.087 514.832 304.495C514.832 304.911 514.888 305.295 515 305.647C515.12 305.999 515.292 306.299 515.516 306.547C515.748 306.795 516.032 306.991 516.368 307.135C516.704 307.271 517.088 307.339 517.52 307.339C517.936 307.339 518.32 307.235 518.672 307.027C519.024 306.811 519.296 306.523 519.488 306.163L519.512 306.187C519.48 307.299 519.308 308.127 518.996 308.671C518.684 309.207 518.216 309.475 517.592 309.475C517.184 309.475 516.832 309.363 516.536 309.139C516.24 308.915 516.072 308.595 516.032 308.179ZM519.332 304.567C519.332 304.815 519.292 305.055 519.212 305.287C519.132 305.511 519.016 305.711 518.864 305.887C518.712 306.055 518.528 306.191 518.312 306.295C518.096 306.391 517.856 306.439 517.592 306.439C517.344 306.439 517.116 306.391 516.908 306.295C516.708 306.191 516.532 306.055 516.38 305.887C516.236 305.719 516.12 305.527 516.032 305.311C515.952 305.095 515.912 304.871 515.912 304.639C515.912 304.375 515.94 304.123 515.996 303.883C516.06 303.643 516.156 303.431 516.284 303.247C516.42 303.055 516.592 302.903 516.8 302.791C517.016 302.679 517.276 302.623 517.58 302.623C517.868 302.623 518.12 302.675 518.336 302.779C518.552 302.883 518.732 303.027 518.876 303.211C519.028 303.387 519.14 303.591 519.212 303.823C519.292 304.055 519.332 304.303 519.332 304.567Z" fill="#86909C"/>
<path d="M566.289 310.231V301.723H565.509C565.453 302.043 565.349 302.307 565.197 302.515C565.045 302.723 564.857 302.887 564.633 303.007C564.417 303.127 564.173 303.211 563.901 303.259C563.629 303.299 563.349 303.319 563.061 303.319V304.135H565.269V310.231H566.289ZM570.269 306.043C570.269 305.835 570.269 305.607 570.269 305.359C570.277 305.103 570.297 304.851 570.329 304.603C570.369 304.347 570.421 304.099 570.485 303.859C570.557 303.619 570.657 303.411 570.785 303.235C570.921 303.051 571.089 302.903 571.289 302.791C571.489 302.679 571.733 302.623 572.021 302.623C572.309 302.623 572.553 302.679 572.753 302.791C572.953 302.903 573.117 303.051 573.245 303.235C573.381 303.411 573.481 303.619 573.545 303.859C573.617 304.099 573.669 304.347 573.701 304.603C573.741 304.851 573.761 305.103 573.761 305.359C573.769 305.607 573.773 305.835 573.773 306.043C573.773 306.363 573.761 306.723 573.737 307.123C573.721 307.515 573.657 307.887 573.545 308.239C573.441 308.583 573.269 308.875 573.029 309.115C572.789 309.355 572.453 309.475 572.021 309.475C571.589 309.475 571.253 309.355 571.013 309.115C570.773 308.875 570.597 308.583 570.485 308.239C570.381 307.887 570.317 307.515 570.293 307.123C570.277 306.723 570.269 306.363 570.269 306.043ZM569.189 306.055C569.189 306.367 569.197 306.691 569.213 307.027C569.229 307.363 569.269 307.691 569.333 308.011C569.397 308.331 569.489 308.635 569.609 308.923C569.729 309.203 569.893 309.451 570.101 309.667C570.309 309.883 570.569 310.055 570.881 310.183C571.201 310.303 571.581 310.363 572.021 310.363C572.469 310.363 572.849 310.303 573.161 310.183C573.473 310.055 573.733 309.883 573.941 309.667C574.149 309.451 574.313 309.203 574.433 308.923C574.553 308.635 574.645 308.331 574.709 308.011C574.773 307.691 574.813 307.363 574.829 307.027C574.845 306.691 574.853 306.367 574.853 306.055C574.853 305.743 574.845 305.419 574.829 305.083C574.813 304.747 574.773 304.419 574.709 304.099C574.645 303.779 574.553 303.475 574.433 303.187C574.313 302.899 574.149 302.647 573.941 302.431C573.733 302.215 573.469 302.043 573.149 301.915C572.837 301.787 572.461 301.723 572.021 301.723C571.581 301.723 571.201 301.787 570.881 301.915C570.569 302.043 570.309 302.215 570.101 302.431C569.893 302.647 569.729 302.899 569.609 303.187C569.489 303.475 569.397 303.779 569.333 304.099C569.269 304.419 569.229 304.747 569.213 305.083C569.197 305.419 569.189 305.743 569.189 306.055Z" fill="#86909C"/>
<path d="M617.215 310.231V301.723H616.435C616.379 302.043 616.275 302.307 616.123 302.515C615.971 302.723 615.783 302.887 615.559 303.007C615.343 303.127 615.099 303.211 614.827 303.259C614.555 303.299 614.275 303.319 613.987 303.319V304.135H616.195V310.231H617.215ZM623.883 310.231V301.723H623.103C623.047 302.043 622.943 302.307 622.791 302.515C622.639 302.723 622.451 302.887 622.227 303.007C622.011 303.127 621.767 303.211 621.495 303.259C621.223 303.299 620.943 303.319 620.655 303.319V304.135H622.863V310.231H623.883Z" fill="#86909C"/>
<path d="M668.141 310.231V301.723H667.361C667.305 302.043 667.201 302.307 667.049 302.515C666.897 302.723 666.709 302.887 666.485 303.007C666.269 303.127 666.025 303.211 665.753 303.259C665.481 303.299 665.201 303.319 664.913 303.319V304.135H667.121V310.231H668.141ZM671.065 304.735H672.085C672.077 304.479 672.101 304.227 672.157 303.979C672.221 303.723 672.321 303.495 672.457 303.295C672.593 303.095 672.765 302.935 672.973 302.815C673.189 302.687 673.445 302.623 673.741 302.623C673.965 302.623 674.177 302.659 674.377 302.731C674.577 302.803 674.749 302.907 674.893 303.043C675.045 303.179 675.165 303.343 675.253 303.535C675.341 303.719 675.385 303.927 675.385 304.159C675.385 304.455 675.337 304.715 675.241 304.939C675.153 305.163 675.017 305.371 674.833 305.563C674.657 305.755 674.433 305.947 674.161 306.139C673.889 306.323 673.573 306.527 673.213 306.751C672.917 306.927 672.633 307.115 672.361 307.315C672.089 307.515 671.845 307.747 671.629 308.011C671.413 308.275 671.233 308.587 671.089 308.947C670.953 309.299 670.865 309.727 670.825 310.231H676.381V309.331H672.013C672.061 309.067 672.161 308.835 672.313 308.635C672.473 308.427 672.661 308.235 672.877 308.059C673.101 307.883 673.345 307.719 673.609 307.567C673.873 307.407 674.137 307.247 674.401 307.087C674.665 306.919 674.921 306.743 675.169 306.559C675.417 306.375 675.637 306.171 675.829 305.947C676.021 305.715 676.173 305.455 676.285 305.167C676.405 304.879 676.465 304.547 676.465 304.171C676.465 303.771 676.393 303.419 676.249 303.115C676.113 302.811 675.925 302.559 675.685 302.359C675.445 302.151 675.161 301.995 674.833 301.891C674.513 301.779 674.169 301.723 673.801 301.723C673.353 301.723 672.953 301.799 672.601 301.951C672.249 302.103 671.953 302.315 671.713 302.587C671.481 302.851 671.309 303.167 671.197 303.535C671.085 303.903 671.041 304.303 671.065 304.735Z" fill="#86909C"/>
<path d="M110.841 220.981C124.91 208.499 141.936 195.501 162 196.873C182.063 198.245 191.496 212.906 213.158 217.29C234.821 221.673 242.814 219.86 264.317 221.673C285.819 223.485 295.012 221.099 315.475 226.63C335.939 232.162 343.692 267.478 366.634 256.13C389.575 244.782 399.247 176.16 417.792 165.745C436.337 155.33 453.363 163.892 468.951 169.237C484.538 174.582 500.285 191.595 520.109 187.821C539.933 184.047 549.845 134.564 571.268 145.108C592.69 155.652 598.526 232.162 622.426 232.162C646.327 232.162 665.671 127.257 673.585 85.4521" stroke="#0FC6C2" stroke-width="2" stroke-linejoin="round"/>
<path d="M213.158 217.29C191.496 212.906 182.063 198.245 162 196.873C141.936 195.501 124.91 208.499 110.841 220.981V290.601H673.585V85.4521C665.671 127.257 646.327 232.162 622.426 232.162C598.526 232.162 592.69 155.652 571.268 145.108C549.845 134.564 539.933 184.047 520.109 187.821C500.285 191.595 484.538 174.582 468.951 169.237C453.363 163.892 436.337 155.33 417.792 165.745C399.247 176.16 389.575 244.782 366.634 256.13C343.692 267.478 335.939 232.162 315.475 226.63C295.012 221.099 285.819 223.485 264.317 221.673C242.814 219.86 234.821 221.673 213.158 217.29Z" fill="url(#paint0_linear_1_1348)"/>
<defs>
<linearGradient id="paint0_linear_1_1348" x1="392.213" y1="85.4521" x2="392.213" y2="290.601" gradientUnits="userSpaceOnUse">
<stop stop-color="#3BB346" stop-opacity="0.2"/>
<stop offset="1" stop-color="#3BB346" stop-opacity="0"/>
</linearGradient>
</defs>
</svg>
