<svg width="32" height="33" viewBox="0 0 32 33" fill="none" xmlns="http://www.w3.org/2000/svg">
<path d="M9.55973 30.8738C6.3864 30.8738 3.78645 28.5671 3.78645 25.7271V23.0071C3.78645 22.4604 4.23979 22.0071 4.78645 22.0071C5.33312 22.0071 5.78645 22.4604 5.78645 23.0071C5.78645 24.6738 7.39973 25.9271 9.55973 25.9271C11.7197 25.9271 13.3331 24.6738 13.3331 23.0071C13.3331 22.4604 13.7864 22.0071 14.3331 22.0071C14.8797 22.0071 15.3331 22.4604 15.3331 23.0071V25.7271C15.3331 28.5671 12.7464 30.8738 9.55973 30.8738ZM6.13305 27.0338C6.71972 28.1271 8.03973 28.8738 9.55973 28.8738C11.0797 28.8738 12.3997 28.1138 12.9864 27.0338C12.0397 27.6071 10.8664 27.9404 9.55973 27.9404C8.25307 27.9404 7.07972 27.6071 6.13305 27.0338Z" fill="white"/>
<path d="M9.55973 24.2735C7.37307 24.2735 5.41311 23.2735 4.43977 21.6869C4.01311 20.9935 3.78645 20.1802 3.78645 19.3535C3.78645 17.9535 4.39977 16.6469 5.51977 15.6735C7.67977 13.7802 11.3997 13.7803 13.5731 15.6603C14.6931 16.647 15.3197 17.9535 15.3197 19.3535C15.3197 20.1802 15.0931 20.9935 14.6664 21.6869C13.7064 23.2735 11.7464 24.2735 9.55973 24.2735ZM9.55973 16.207C8.51973 16.207 7.55976 16.5535 6.83976 17.1802C6.15976 17.7669 5.78645 18.5402 5.78645 19.3535C5.78645 19.8202 5.9064 20.247 6.1464 20.647C6.75973 21.6603 8.0664 22.287 9.55973 22.287C11.0531 22.287 12.3597 21.6603 12.9597 20.6603C13.1997 20.2737 13.3197 19.8337 13.3197 19.367C13.3197 18.5537 12.9464 17.7802 12.2664 17.1802C11.5598 16.5535 10.5997 16.207 9.55973 16.207Z" fill="white"/>
<path d="M9.55973 27.941C6.2664 27.941 3.78645 25.821 3.78645 23.021V19.3543C3.78645 16.5143 6.37307 14.2077 9.55973 14.2077C11.0664 14.2077 12.5064 14.7277 13.5864 15.661C14.7064 16.6477 15.3331 17.9543 15.3331 19.3543V23.021C15.3331 25.821 12.8531 27.941 9.55973 27.941ZM9.55973 16.2077C7.47973 16.2077 5.78645 17.621 5.78645 19.3543V23.021C5.78645 24.6877 7.39973 25.941 9.55973 25.941C11.7197 25.941 13.3331 24.6877 13.3331 23.021V19.3543C13.3331 18.541 12.9598 17.7677 12.2798 17.1677C11.5598 16.5543 10.5997 16.2077 9.55973 16.2077Z" fill="white"/>
<path d="M25.3865 20.2746C23.3732 20.2746 21.6665 18.7813 21.5065 16.8613C21.3999 15.7546 21.7999 14.6746 22.5999 13.8879C23.2665 13.1946 24.2132 12.8079 25.2132 12.8079H27.9999C29.3199 12.8479 30.3332 13.8879 30.3332 15.1679V17.9146C30.3332 19.1946 29.3199 20.2346 28.0399 20.2746H25.3865ZM27.9599 14.8079H25.2265C24.7599 14.8079 24.3332 14.9813 24.0265 15.3013C23.6399 15.6746 23.4532 16.1813 23.5065 16.6879C23.5732 17.5679 24.4265 18.2746 25.3865 18.2746H27.9999C28.1732 18.2746 28.3332 18.1146 28.3332 17.9146V15.1679C28.3332 14.9679 28.1732 14.8213 27.9599 14.8079Z" fill="white"/>
<path d="M21.3336 28.8743H18.0003C17.4536 28.8743 17.0003 28.421 17.0003 27.8743C17.0003 27.3277 17.4536 26.8743 18.0003 26.8743H21.3336C24.7736 26.8743 27.0003 24.6477 27.0003 21.2077V20.2743H25.3869C23.3736 20.2743 21.6669 18.781 21.5069 16.861C21.4003 15.7543 21.8004 14.6743 22.6004 13.8877C23.2671 13.1943 24.2136 12.8077 25.2136 12.8077H26.9869V11.8743C26.9869 8.75432 25.1604 6.60763 22.2004 6.26096C21.8804 6.20763 21.6003 6.20766 21.3203 6.20766H9.32031C9.00031 6.20766 8.69363 6.23431 8.38696 6.27431C5.45363 6.64764 3.65364 8.78099 3.65364 11.8743V14.541C3.65364 15.0877 3.20031 15.541 2.65364 15.541C2.10697 15.541 1.65364 15.0877 1.65364 14.541V11.8743C1.65364 7.76766 4.18703 4.79434 8.12036 4.301C8.48036 4.24767 8.89364 4.20766 9.32031 4.20766H21.3203C21.6403 4.20766 22.0536 4.22099 22.4803 4.28766C26.4136 4.74099 28.9869 7.72766 28.9869 11.8743V13.8077C28.9869 14.3543 28.5336 14.8077 27.9869 14.8077H25.2136C24.7469 14.8077 24.3204 14.981 24.0137 15.301C23.6271 15.6743 23.4403 16.181 23.4936 16.6877C23.5603 17.5677 24.4137 18.2743 25.3737 18.2743H28.0003C28.5469 18.2743 29.0003 18.7277 29.0003 19.2743V21.2077C29.0003 25.7943 25.9203 28.8743 21.3336 28.8743Z" fill="white"/>
</svg>
