<svg width="32" height="32" viewBox="0 0 32 32" fill="none" xmlns="http://www.w3.org/2000/svg">
<path d="M25.7334 10.56V17.4267C25.7334 21.5333 23.3868 23.2933 19.8668 23.2933H8.14668C7.54668 23.2933 6.97336 23.24 6.44003 23.12C6.1067 23.0667 5.7867 22.9733 5.49336 22.8667C3.49336 22.12 2.28003 20.3867 2.28003 17.4267V10.56C2.28003 6.45331 4.62668 4.69336 8.14668 4.69336H19.8668C22.8534 4.69336 25.0001 5.96001 25.5734 8.85335C25.6668 9.38668 25.7334 9.93331 25.7334 10.56Z" stroke="white" stroke-width="2" stroke-miterlimit="10" stroke-linecap="round" stroke-linejoin="round"/>
<path d="M29.7349 14.5601V21.4268C29.7349 25.5335 27.3883 27.2935 23.8683 27.2935H12.1482C11.1615 27.2935 10.2682 27.1601 9.49487 26.8668C7.90821 26.2801 6.82819 25.0668 6.44153 23.1201C6.97486 23.2401 7.5482 23.2935 8.1482 23.2935H19.8683C23.3883 23.2935 25.7349 21.5335 25.7349 17.4268V10.5601C25.7349 9.93346 25.6816 9.37352 25.5749 8.85352C28.1083 9.38685 29.7349 11.1735 29.7349 14.5601Z" stroke="white" stroke-width="2" stroke-miterlimit="10" stroke-linecap="round" stroke-linejoin="round"/>
<path d="M13.9978 17.5199C15.9418 17.5199 17.5178 15.9439 17.5178 13.9999C17.5178 12.0558 15.9418 10.4798 13.9978 10.4798C12.0538 10.4798 10.4778 12.0558 10.4778 13.9999C10.4778 15.9439 12.0538 17.5199 13.9978 17.5199Z" stroke="white" stroke-width="2" stroke-miterlimit="10" stroke-linecap="round" stroke-linejoin="round"/>
<path d="M6.37326 11.0667V16.9335" stroke="white" stroke-width="2" stroke-miterlimit="10" stroke-linecap="round" stroke-linejoin="round"/>
<path d="M21.629 11.0671V16.9337" stroke="white" stroke-width="2" stroke-miterlimit="10" stroke-linecap="round" stroke-linejoin="round"/>
</svg>
