<svg width="36" height="36" viewBox="0 0 36 36" fill="none" xmlns="http://www.w3.org/2000/svg">
<g opacity="0.5">
<rect width="36" height="36" rx="18" fill="#FCFCFD"/>
<path fill-rule="evenodd" clip-rule="evenodd" d="M24.709 12.7071C25.0995 12.3166 25.0995 11.6835 24.709 11.2929C24.3185 10.9024 23.6854 10.9024 23.2948 11.2929L18.0009 16.5863L12.7071 11.2929C12.3165 10.9024 11.6834 10.9024 11.2929 11.2929C10.9024 11.6835 10.9024 12.3166 11.2929 12.7071L16.5867 18.0004L11.2929 23.2937C10.9024 23.6842 10.9024 24.3174 11.2929 24.7079C11.6834 25.0985 12.3165 25.0985 12.7071 24.708L18.0009 19.4146L23.2948 24.708C23.6854 25.0985 24.3185 25.0985 24.709 24.7079C25.0995 24.3174 25.0995 23.6842 24.709 23.2937L19.4152 18.0004L24.709 12.7071Z" fill="#98A2B3"/>
</g>
</svg>
