<svg width="22" height="25" viewBox="0 0 22 25" fill="none" xmlns="http://www.w3.org/2000/svg">
<path d="M11.6471 25L11.3235 21.25H11C7.93726 21.25 5.33824 20.2188 3.20294 18.1562C1.06765 16.0938 0 13.5833 0 10.625C0 7.66667 1.06765 5.15625 3.20294 3.09375C5.33824 1.03125 7.93726 0 11 0C12.5314 0 13.9601 0.275833 15.2861 0.8275C16.613 1.38 17.7782 2.14042 18.7815 3.10875C19.784 4.07792 20.5709 5.20292 21.142 6.48375C21.714 7.76542 22 9.14583 22 10.625C22 13.7917 21.0186 16.63 19.0559 19.14C17.0931 21.6508 14.6235 23.6042 11.6471 25ZM10.9676 17.4688C11.3343 17.4688 11.6471 17.3438 11.9059 17.0938C12.1647 16.8438 12.2941 16.5417 12.2941 16.1875C12.2941 15.8333 12.1647 15.5313 11.9059 15.2812C11.6471 15.0312 11.3343 14.9062 10.9676 14.9062C10.601 14.9062 10.2882 15.0312 10.0294 15.2812C9.77059 15.5313 9.64118 15.8333 9.64118 16.1875C9.64118 16.5417 9.77059 16.8438 10.0294 17.0938C10.2882 17.3438 10.601 17.4688 10.9676 17.4688ZM10.0294 13.5H11.9706C11.9706 12.875 12.0353 12.4375 12.1647 12.1875C12.2941 11.9375 12.7039 11.4792 13.3941 10.8125C13.7824 10.4375 14.1059 10.0312 14.3647 9.59375C14.6235 9.15625 14.7529 8.6875 14.7529 8.1875C14.7529 7.125 14.3811 6.32792 13.6374 5.79625C12.8929 5.26542 12.0137 5 11 5C10.051 5 9.25294 5.255 8.60588 5.765C7.95882 6.27583 7.50588 6.89583 7.24706 7.625L9.05882 8.3125C9.16667 7.95833 9.37157 7.60917 9.67353 7.265C9.97549 6.92167 10.4176 6.75 11 6.75C11.5824 6.75 12.0193 6.90625 12.3109 7.21875C12.6017 7.53125 12.7471 7.875 12.7471 8.25C12.7471 8.60417 12.6392 8.92167 12.4235 9.2025C12.2078 9.48417 11.949 9.77083 11.6471 10.0625C10.8922 10.6875 10.434 11.1821 10.2727 11.5463C10.1105 11.9113 10.0294 12.5625 10.0294 13.5ZM14.2353 18.75V20.4375C15.7667 19.1875 17.012 17.7242 17.9714 16.0475C18.9316 14.37 19.4118 12.5625 19.4118 10.625C19.4118 8.35417 18.5978 6.43208 16.9698 4.85875C15.3409 3.28625 13.351 2.5 11 2.5C8.64902 2.5 6.65953 3.28625 5.03153 4.85875C3.40267 6.43208 2.58824 8.35417 2.58824 10.625C2.58824 12.8958 3.40267 14.8179 5.03153 16.3913C6.65953 17.9638 8.64902 18.75 11 18.75H14.2353Z" fill="white"/>
</svg>
